Aluminium.glyphspackage
{
glyphname = exclam;
layers = (
{
layerId = "B8B720EE-CA8B-4072-B286-8C23F1A5F625";
shapes = (
{
closed = 1;
nodes = (
(94,220,l),
(110,720,l),
(46,720,l),
(62,220,l)
);
},
{
ref = period;
}
);
width = 156;
}
);
metricRight = "=|";
unicode = 33;
}
{
glyphname = numbersign;
layers = (
{
layerId = "B8B720EE-CA8B-4072-B286-8C23F1A5F625";
shapes = (
{
closed = 1;
nodes = (
(214,0,l),
(338,700,l),
(299,700,l),
(175,0,l)
);
},
{
closed = 1;
nodes = (
(322,224,l),
(328,260,l),
(34,260,l),
(28,224,l)
);
},
{
closed = 1;
nodes = (
(97,0,l),
(221,700,l),
(182,700,l),
(58,0,l)
);
},
{
closed = 1;
nodes = (
(364,460,l),
(370,496,l),
(76,496,l),
(70,460,l)
);
}
);
width = 398;
}
);
metricRight = "=|";
unicode = 35;
}
{
glyphname = dollar;
layers = (
{
layerId = "B8B720EE-CA8B-4072-B286-8C23F1A5F625";
shapes = (
{
ref = S;
},
{
closed = 1;
nodes = (
(146,700,l),
(146,800,l),
(122,800,l),
(122,700,l)
);
},
{
closed = 1;
nodes = (
(146,-100,l),
(146,0,l),
(122,0,l),
(122,-100,l)
);
}
);
width = 268;
}
);
metricLeft = S;
metricRight = S;
unicode = 36;
}
{
glyphname = percent;
layers = (
{
layerId = "B8B720EE-CA8B-4072-B286-8C23F1A5F625";
shapes = (
{
closed = 1;
nodes = (
(80,0,l),
(400,700,l),
(360,700,l),
(40,0,l)
);
},
{
closed = 1;
nodes = (
(400,-8,o),
(400,87,o),
(400,120,cs),
(400,180,ls),
(400,213,o),
(400,308,o),
(310,308,cs),
(220,308,o),
(220,213,o),
(220,180,cs),
(220,120,ls),
(220,87,o),
(220,-8,o),
(310,-8,cs)
);
},
{
closed = 1;
nodes = (
(280,8,o),
(280,69,o),
(280,110,cs),
(280,190,ls),
(280,231,o),
(280,292,o),
(310,292,cs),
(340,292,o),
(340,231,o),
(340,190,cs),
(340,110,ls),
(340,69,o),
(340,8,o),
(310,8,cs)
);
},
{
closed = 1;
nodes = (
(220,392,o),
(220,487,o),
(220,520,cs),
(220,580,ls),
(220,613,o),
(220,708,o),
(130,708,cs),
(40,708,o),
(40,613,o),
(40,580,cs),
(40,520,ls),
(40,487,o),
(40,392,o),
(130,392,cs)
);
},
{
closed = 1;
nodes = (
(100,408,o),
(100,469,o),
(100,510,cs),
(100,590,ls),
(100,631,o),
(100,692,o),
(130,692,cs),
(160,692,o),
(160,631,o),
(160,590,cs),
(160,510,ls),
(160,469,o),
(160,408,o),
(130,408,cs)
);
}
);
width = 440;
}
);
metricRight = "=|";
unicode = 37;
}
{
glyphname = ampersand;
layers = (
{
background = {
hints = (
{
name = _corner.serif;
origin = (1,4);
scale = (0.9,1);
type = Corner;
},
{
name = _corner.serif;
options = 1;
origin = (1,5);
scale = (-1.1,1);
type = Corner;
}
);
shapes = (
{
closed = 1;
nodes = (
(288,0,l),
(206,240,ls),
(144,421,o),
(116,504,o),
(116,590,cs),
(116,629,o),
(121,692,o),
(164,692,cs),
(206,692,o),
(206,629,o),
(206,590,cs),
(206,540,l),
(268,540,l),
(268,580,ls),
(268,613,o),
(268,708,o),
(165,708,cs),
(64,708,o),
(60,613,o),
(60,580,cs),
(60,491,o),
(89,403,o),
(143,242,cs),
(224,0,l)
);
},
{
closed = 1;
nodes = (
(158,-8,o),
(178,70,o),
(205,176,c),
(211,176,l),
(268,400,l),
(246,400,l),
(189,176,l),
(183,176,l),
(156,70,o),
(144,37,o),
(121,37,cs),
(95,37,o),
(86,79,o),
(86,145,cs),
(86,183,o),
(89,263,o),
(100,315,cs),
(116,390,l),
(107,390,l),
(79,320,ls),
(48,242,o),
(38,178,o),
(38,130,cs),
(38,53,o),
(64,-8,o),
(108,-8,cs)
);
}
);
};
guides = (
{
angle = 258.15;
pos = (30,324);
}
);
hints = (
{
name = _corner.serif;
origin = (1,4);
scale = (0.9,1);
type = Corner;
},
{
name = _corner.serif;
options = 1;
origin = (1,5);
scale = (-1.1,1);
type = Corner;
}
);
layerId = "B8B720EE-CA8B-4072-B286-8C23F1A5F625";
shapes = (
{
closed = 1;
nodes = (
(288,0,l),
(206,240,ls),
(144,421,o),
(116,504,o),
(116,590,cs),
(116,629,o),
(122,692,o),
(164,692,cs),
(206,692,o),
(206,629,o),
(206,590,cs),
(206,540,l),
(268,540,l),
(268,580,ls),
(268,613,o),
(268,708,o),
(167,708,cs),
(67,708,o),
(60,616,o),
(60,582,cs),
(60,506,o),
(95,403,o),
(151,242,cs),
(236,0,l)
);
},
{
closed = 1;
nodes = (
(175,-8,o),
(193,70,o),
(215,176,c),
(221,176,l),
(269,432,l),
(247,432,l),
(199,176,l),
(193,176,l),
(165,70,o),
(156,37,o),
(128,37,cs),
(101,37,o),
(86,68,o),
(86,151,cs),
(86,204,o),
(92,273,o),
(105,328,cs),
(115,371,l),
(107,390,l),
(79,320,ls),
(47,239,o),
(30,181,o),
(30,119,cs),
(30,29,o),
(66,-8,o),
(110,-8,cs)
);
}
);
width = 280;
}
);
metricLeft = S;
metricRight = "=X+15";
unicode = 38;
}
{
glyphname = quotesingle;
layers = (
{
layerId = "B8B720EE-CA8B-4072-B286-8C23F1A5F625";
shapes = (
{
closed = 1;
nodes = (
(88,546,l),
(110,720,l),
(46,720,l),
(68,546,l)
);
}
);
width = 156;
}
);
metricRight = "=|";
unicode = 39;
}
{
glyphname = parenleft;
layers = (
{
layerId = "B8B720EE-CA8B-4072-B286-8C23F1A5F625";
shapes = (
{
closed = 1;
nodes = (
(206,-168,l),
(118,-44,o),
(94,74,o),
(94,262,cs),
(94,450,o),
(118,570,o),
(206,694,c),
(191,707,l),
(52,547,o),
(32,380,o),
(32,262,cs),
(32,144,o),
(52,-23,o),
(191,-183,c)
);
}
);
width = 202;
}
);
unicode = 40;
}
{
glyphname = asterisk;
layers = (
{
layerId = "B8B720EE-CA8B-4072-B286-8C23F1A5F625";
shapes = (
{
closed = 1;
nodes = (
(175,571,l),
(312,622,l),
(282,674,l),
(169,581,l),
(32,530,l),
(62,478,l)
);
},
{
closed = 1;
nodes = (
(312,530,l),
(175,581,l),
(62,674,l),
(32,622,l),
(169,571,l),
(282,478,l)
);
},
{
closed = 1;
nodes = (
(202,432,l),
(178,576,l),
(202,720,l),
(142,720,l),
(166,576,l),
(142,432,l)
);
}
);
width = 344;
}
);
metricRight = "=|";
unicode = 42;
}
{
glyphname = plus;
layers = (
{
layerId = "B8B720EE-CA8B-4072-B286-8C23F1A5F625";
shapes = (
{
closed = 1;
nodes = (
(260,170,l),
(260,530,l),
(220,530,l),
(220,170,l)
);
},
{
ref = minus;
}
);
width = 480;
}
);
metricLeft = minus;
metricRight = minus;
unicode = 43;
}
{
glyphname = comma;
kernLeft = peroid;
layers = (
{
background = {
shapes = (
{
closed = 1;
nodes = (
(105,-8,o),
(126,13,o),
(126,40,cs),
(126,67,o),
(105,88,o),
(78,88,cs),
(51,88,o),
(30,67,o),
(30,40,cs),
(30,13,o),
(51,-8,o),
(78,-8,cs)
);
}
);
};
layerId = "B8B720EE-CA8B-4072-B286-8C23F1A5F625";
shapes = (
{
closed = 1;
nodes = (
(103,30,l),
(103,-48,o),
(72,-86,o),
(35,-94,c),
(35,-114,l),
(96,-106,o),
(126,-41,o),
(126,22,cs),
(126,68,o),
(105,88,o),
(78,88,cs),
(51,88,o),
(30,67,o),
(30,40,cs),
(30,13,o),
(51,-8,o),
(78,-8,cs),
(104,-8,o),
(113,12,o),
(113,30,c)
);
}
);
width = 156;
}
);
metricLeft = period;
metricRight = period;
unicode = 44;
}
{
glyphname = hyphen;
layers = (
{
layerId = "B8B720EE-CA8B-4072-B286-8C23F1A5F625";
shapes = (
{
closed = 1;
nodes = (
(20,244,l),
(180,244,l),
(180,280,l),
(20,280,l)
);
}
);
width = 200;
}
);
metricRight = "=|";
unicode = 45;
}
{
glyphname = period;
kernLeft = peroid;
layers = (
{
layerId = "B8B720EE-CA8B-4072-B286-8C23F1A5F625";
shapes = (
{
closed = 1;
nodes = (
(105,-8,o),
(126,13,o),
(126,40,cs),
(126,67,o),
(105,88,o),
(78,88,cs),
(51,88,o),
(30,67,o),
(30,40,cs),
(30,13,o),
(51,-8,o),
(78,-8,cs)
);
}
);
width = 156;
}
);
metricRight = "=|";
unicode = 46;
}
{
glyphname = slash;
layers = (
{
layerId = "B8B720EE-CA8B-4072-B286-8C23F1A5F625";
shapes = (
{
closed = 1;
nodes = (
(64,-176,l),
(264,700,l),
(216,700,l),
(16,-176,l)
);
}
);
width = 280;
}
);
metricRight = "=|";
unicode = 47;
}
{
glyphname = zero;
layers = (
{
layerId = "B8B720EE-CA8B-4072-B286-8C23F1A5F625";
shapes = (
{
closed = 1;
nodes = (
(82,140,l),
(220,560,l),
(198,560,l),
(60,140,l)
);
},
{
pos = (-4,0);
ref = O;
}
);
width = 280;
}
);
metricRight = "=|";
unicode = 48;
}
{
glyphname = one;
layers = (
{
layerId = "B8B720EE-CA8B-4072-B286-8C23F1A5F625";
shapes = (
{
closed = 1;
nodes = (
(196,0,l),
(196,16,l),
(136,16,l),
(136,710,l),
(10,682,l),
(10,665,l),
(74,679,l),
(74,16,l),
(14,16,l),
(14,0,l)
);
}
);
width = 206;
}
);
metricRight = l;
unicode = 49;
}
{
glyphname = two;
layers = (
{
layerId = "B8B720EE-CA8B-4072-B286-8C23F1A5F625";
shapes = (
{
closed = 1;
nodes = (
(228,0,l),
(228,120,l),
(166,120,l),
(166,16,l),
(82,16,l),
(82,83,ls),
(82,270,o),
(228,338,o),
(228,525,cs),
(228,565,l),
(166,565,l),
(166,538,ls),
(166,363,o),
(20,295,o),
(20,120,cs),
(20,0,l)
);
},
{
closed = 1;
nodes = (
(82,492,l),
(82,565,l),
(20,565,l),
(20,492,l)
);
},
{
pos = (20,540);
ref = _part.uppercase2;
}
);
width = 248;
}
);
unicode = 50;
}
{
glyphname = three;
layers = (
{
layerId = "B8B720EE-CA8B-4072-B286-8C23F1A5F625";
shapes = (
{
closed = 1;
nodes = (
(244,140,l),
(244,250,l),
(182,250,l),
(182,140,l)
);
},
{
pos = (36,160);
ref = _part.uppercase2;
scale = (1,-1);
},
{
closed = 1;
nodes = (
(98,140,l),
(98,200,l),
(36,200,l),
(36,140,l)
);
},
{
pos = (76,230);
ref = _part.uppercase1;
},
{
pos = (76,550);
ref = _part.uppercase1;
scale = (1,-1);
},
{
pos = (36,540);
ref = _part.uppercase2;
}
);
width = 280;
}
);
metricRight = "=|";
metricWidth = zero;
unicode = 51;
}
{
glyphname = four;
layers = (
{
hints = (
{
name = _corner.serif;
origin = (1,4);
type = Corner;
},
{
name = _corner.serif;
options = 1;
origin = (1,0);
scale = (-1,1);
type = Corner;
}
);
layerId = "B8B720EE-CA8B-4072-B286-8C23F1A5F625";
shapes = (
{
closed = 1;
nodes = (
(236,171,l),
(236,187,l),
(18,187,l),
(186,700,l),
(164,700,l),
(-10,171,l)
);
},
{
closed = 1;
nodes = (
(188,0,l),
(188,700,l),
(176,700,l),
(126,546,l),
(126,0,l)
);
}
);
width = 246;
}
);
unicode = 52;
}
{
glyphname = five;
layers = (
{
layerId = "B8B720EE-CA8B-4072-B286-8C23F1A5F625";
shapes = (
{
closed = 1;
nodes = (
(166,140,l),
(228,140,l),
(228,310,l),
(166,310,l)
);
},
{
closed = 1;
nodes = (
(20,140,l),
(82,140,l),
(82,200,l),
(20,200,l)
);
},
{
closed = 1;
nodes = (
(28,382,l),
(70,382,l),
(91,416,l),
(91,684,l),
(228,684,l),
(228,700,l),
(28,700,l)
);
},
{
closed = 1;
nodes = (
(228,290,l),
(228,322,ls),
(228,379,o),
(221,458,o),
(152,458,cs),
(107,458,o),
(83,428,o),
(64,382,c),
(77,382,l),
(93,407,o),
(113,427,o),
(135,427,cs),
(166,427,o),
(166,387,o),
(166,340,cs),
(166,290,l)
);
},
{
pos = (20,160);
ref = _part.uppercase2;
scale = (1,-1);
}
);
width = 268;
}
);
metricRight = O;
unicode = 53;
}
{
glyphname = six;
layers = (
{
layerId = "B8B720EE-CA8B-4072-B286-8C23F1A5F625";
shapes = (
{
closed = 1;
nodes = (
(40,560,l),
(40,140,l),
(102,140,l),
(102,560,l)
);
},
{
closed = 1;
nodes = (
(186,270,l),
(186,140,l),
(248,140,l),
(248,270,l)
);
},
{
closed = 1;
nodes = (
(248,250,l),
(248,282,ls),
(248,339,o),
(241,418,o),
(172,418,cs),
(121,418,o),
(99,376,o),
(86,326,c),
(86,309,l),
(103,366,o),
(124,387,o),
(150,387,cs),
(186,387,o),
(186,347,o),
(186,300,cs),
(186,250,l)
);
},
{
closed = 1;
nodes = (
(248,520,l),
(248,560,l),
(186,560,l),
(186,520,l)
);
},
{
pos = (248,540);
ref = _part.uppercase2;
scale = (-1,1);
},
{
angle = 180;
pos = (248,160);
ref = _part.uppercase2;
}
);
width = 288;
}
);
metricLeft = O;
metricRight = O;
unicode = 54;
}
{
glyphname = eight;
layers = (
{
layerId = "B8B720EE-CA8B-4072-B286-8C23F1A5F625";
shapes = (
{
closed = 1;
nodes = (
(248,140,l),
(248,270,l),
(186,270,l),
(186,140,l)
);
},
{
closed = 1;
nodes = (
(102,140,l),
(102,270,l),
(40,270,l),
(40,140,l)
);
},
{
closed = 1;
nodes = (
(44,530,ls),
(44,497,o),
(44,402,o),
(144,402,cs),
(244,402,o),
(244,497,o),
(244,530,cs),
(244,570,l),
(182,570,l),
(182,520,ls),
(182,481,o),
(182,418,o),
(144,418,cs),
(106,418,o),
(106,481,o),
(106,520,cs),
(106,570,l),
(44,570,l)
);
},
{
closed = 1;
nodes = (
(106,540,l),
(106,590,ls),
(106,629,o),
(106,692,o),
(144,692,cs),
(182,692,o),
(182,629,o),
(182,590,cs),
(182,540,l),
(244,540,l),
(244,580,ls),
(244,613,o),
(244,708,o),
(144,708,cs),
(44,708,o),
(44,613,o),
(44,580,cs),
(44,540,l)
);
},
{
pos = (40,160);
ref = _part.uppercase2;
scale = (1,-1);
},
{
pos = (40,250);
ref = _part.uppercase2;
}
);
width = 288;
}
);
metricLeft = O;
metricRight = O;
unicode = 56;
}
{
glyphname = nine;
layers = (
{
layerId = "B8B720EE-CA8B-4072-B286-8C23F1A5F625";
shapes = (
{
closed = 1;
nodes = (
(163,322,o),
(185,364,o),
(198,414,c),
(198,431,l),
(181,374,o),
(160,353,o),
(134,353,cs),
(98,353,o),
(98,393,o),
(98,440,cs),
(98,490,l),
(36,490,l),
(36,458,ls),
(36,401,o),
(43,322,o),
(112,322,cs)
);
},
{
pos = (36,160);
ref = _part.uppercase2;
scale = (1,-1);
},
{
closed = 1;
nodes = (
(98,140,l),
(98,180,l),
(36,180,l),
(36,140,l)
);
},
{
closed = 1;
nodes = (
(244,140,l),
(244,560,l),
(182,560,l),
(182,140,l)
);
},
{
closed = 1;
nodes = (
(98,470,l),
(98,560,l),
(36,560,l),
(36,470,l)
);
},
{
pos = (36,540);
ref = _part.uppercase2;
}
);
width = 280;
}
);
metricRight = "=|";
metricWidth = zero;
unicode = 57;
}
{
glyphname = less;
layers = (
{
layerId = "B8B720EE-CA8B-4072-B286-8C23F1A5F625";
shapes = (
{
closed = 1;
nodes = (
(420,219,l),
(108,350,l),
(420,481,l),
(420,520,l),
(60,368,l),
(60,332,l),
(420,180,l)
);
}
);
width = 480;
}
);
metricLeft = minus;
metricRight = minus;
unicode = 60;
}
{
glyphname = question;
layers = (
{
layerId = "B8B720EE-CA8B-4072-B286-8C23F1A5F625";
shapes = (
{
closed = 1;
nodes = (
(150,220,l),
(150,422,o),
(238,458,o),
(238,574,cs),
(238,638,o),
(210,708,o),
(134,708,cs),
(62,708,o),
(30,644,o),
(30,583,cs),
(30,540,o),
(46,524,o),
(67,524,cs),
(86,524,o),
(100,537,o),
(100,559,cs),
(100,576,o),
(91,592,o),
(73,592,cs),
(56,592,o),
(44,577,o),
(44,561,c),
(48,561,l),
(48,645,o),
(87,676,o),
(122,676,cs),
(164,676,o),
(178,628,o),
(178,575,cs),
(178,467,o),
(118,401,o),
(118,220,c)
);
},
{
pos = (56,0);
ref = period;
}
);
width = 268;
}
);
unicode = 63;
}
{
glyphname = at;
layers = (
{
background = {
anchors = (
{
name = height;
pos = (200,600);
}
);
shapes = (
{
closed = 0;
nodes = (
(220,-208,l),
(400,-208,o),
(400,-38,o),
(400,2,cs)
);
},
{
closed = 0;
nodes = (
(376,2,l),
(376,-42,o),
(376,-184,o),
(220,-184,cs)
);
},
{
closed = 1;
nodes = (
(180,260,l),
(180,440,l),
(120,440,l),
(120,260,l)
);
},
{
alignment = -1;
pos = (280,420);
ref = _part.lowercase1;
scale = (-1,1);
},
{
alignment = -1;
angle = 180;
pos = (280,280);
ref = _part.lowercase1;
},
{
closed = 1;
nodes = (
(260,280,l),
(260,240,ls),
(260,195,o),
(265,112,o),
(335,112,cs),
(385,112,o),
(407,154,o),
(420,204,c),
(420,221,l),
(403,164,o),
(382,143,o),
(356,143,cs),
(320,143,o),
(320,183,o),
(320,230,cs),
(320,280,l)
);
}
);
};
layerId = "B8B720EE-CA8B-4072-B286-8C23F1A5F625";
shapes = (
{
closed = 1;
nodes = (
(269,-8,o),
(305,5,o),
(331,24,c),
(316,43,l),
(293,26,o),
(262,16,o),
(220,16,cs),
(64,16,o),
(64,158,o),
(64,202,cs),
(64,498,ls),
(64,542,o),
(64,684,o),
(220,684,cs),
(376,684,o),
(376,542,o),
(376,498,cs),
(376,270,ls),
(376,207,o),
(376,148,o),
(343,148,cs),
(320,148,o),
(320,175,o),
(320,193,cs),
(320,580,l),
(260,580,l),
(260,189,ls),
(260,164,o),
(260,112,o),
(322,112,cs),
(400,112,o),
(400,196,o),
(400,270,cs),
(400,498,ls),
(400,538,o),
(400,708,o),
(220,708,cs),
(40,708,o),
(40,538,o),
(40,498,cs),
(40,202,ls),
(40,162,o),
(40,-8,o),
(220,-8,cs)
);
},
{
piece = {
height = 91.1111;
};
pos = (120,120);
ref = _part.mid;
}
);
width = 440;
}
);
metricLeft = O;
metricRight = O;
unicode = 64;
}
{
color = 0;
glyphname = A;
layers = (
{
anchors = (
{
name = bottom;
pos = (175,0);
},
{
name = ogonek;
pos = (278,0);
},
{
name = top;
pos = (175,700);
}
);
hints = (
{
name = _corner.serif;
origin = (1,3);
type = Corner;
},
{
name = _corner.serif;
options = 1;
origin = (1,0);
scale = (-1,1);
type = Corner;
},
{
name = _corner.serif;
origin = (0,4);
type = Corner;
},
{
name = _corner.serif;
options = 1;
origin = (0,0);
scale = (-1,1);
type = Corner;
}
);
layerId = "B8B720EE-CA8B-4072-B286-8C23F1A5F625";
shapes = (
{
closed = 1;
nodes = (
(313,0,l),
(196,708,l),
(176,708,l),
(152,578,l),
(243,0,l)
);
},
{
closed = 1;
nodes = (
(60,0,l),
(188,708,l),
(165,708,l),
(37,0,l)
);
},
{
closed = 1;
nodes = (
(210,284,l),
(210,300,l),
(102,300,l),
(102,284,l)
);
}
);
width = 350;
}
);
metricRight = "=|";
unicode = 65;
}
{
glyphname = B;
kernRight = O;
layers = (
{
hints = (
{
name = _corner.serif;
options = 1;
origin = (0,2);
scale = (-1,1);
type = Corner;
},
{
name = _corner.serif;
origin = (0,3);
type = Corner;
}
);
layerId = "B8B720EE-CA8B-4072-B286-8C23F1A5F625";
shapes = (
{
closed = 1;
nodes = (
(102,0,l),
(102,700,l),
(40,700,l),
(40,0,l)
);
},
{
closed = 1;
nodes = (
(248,148,l),
(248,248,l),
(186,248,l),
(186,148,l)
);
},
{
pos = (80,228);
ref = _part.uppercase1;
},
{
pos = (80,168);
ref = _part.uppercase1;
scale = (1,-1);
},
{
pos = (68,532);
ref = _part.uppercase1;
},
{
pos = (68,548);
ref = _part.uppercase1;
scale = (1,-1);
}
);
width = 288;
}
);
metricLeft = H;
metricRight = O;
unicode = 66;
}
{
glyphname = C;
layers = (
{
layerId = "B8B720EE-CA8B-4072-B286-8C23F1A5F625";
shapes = (
{
closed = 1;
nodes = (
(102,140,l),
(102,560,l),
(40,560,l),
(40,140,l)
);
},
{
closed = 1;
nodes = (
(248,140,l),
(248,180,l),
(186,180,l),
(186,140,l)
);
},
{
closed = 1;
nodes = (
(248,520,l),
(248,560,l),
(186,560,l),
(186,520,l)
);
},
{
pos = (40,540);
ref = _part.uppercase2;
},
{
pos = (40,160);
ref = _part.uppercase2;
scale = (1,-1);
}
);
width = 268;
}
);
metricLeft = O;
unicode = 67;
}
{
color = 0;
glyphname = E;
layers = (
{
anchors = (
{
name = bottom;
pos = (124,0);
},
{
name = ogonek;
pos = (211,0);
},
{
name = top;
pos = (124,700);
},
{
name = topleft;
pos = (20,700);
}
);
hints = (
{
name = _corner.serif;
options = 1;
origin = (0,3);
scale = (-1,1);
type = Corner;
},
{
name = _corner.serif;
origin = (0,4);
type = Corner;
},
{
name = _corner.vertserif;
origin = (0,1);
type = Corner;
},
{
name = _corner.vertserif;
options = 1;
origin = (0,6);
scale = (-1,1);
type = Corner;
}
);
layerId = "B8B720EE-CA8B-4072-B286-8C23F1A5F625";
shapes = (
{
closed = 1;
nodes = (
(102,684,l),
(228,684,l),
(228,700,l),
(40,700,l),
(40,0,l),
(228,0,l),
(228,16,l),
(102,16,l)
);
},
{
closed = 1;
nodes = (
(98,380,l),
(202,380,l),
(202,396,l),
(98,396,l)
);
}
);
width = 248;
}
);
metricLeft = H;
metricRight = C;
unicode = 69;
}
{
glyphname = F;
layers = (
{
background = {
hints = (
{
name = _corner.serif;
origin = (0,1);
type = Corner;
},
{
name = _corner.vertserif;
origin = (0,10);
type = Corner;
},
{
name = _corner.serif;
options = 1;
origin = (0,12);
scale = (-1,1);
type = Corner;
},
{
name = _corner.serif;
origin = (0,13);
type = Corner;
}
);
shapes = (
{
closed = 1;
nodes = (
(248,0,l),
(248,180,l),
(186,180,l),
(186,16,l),
(102,16,l),
(102,380,l),
(242,380,l),
(242,396,l),
(102,396,l),
(102,684,l),
(248,684,l),
(248,700,l),
(40,700,l),
(40,0,l)
);
}
);
};
hints = (
{
name = _corner.serif;
options = 1;
origin = (0,8);
scale = (-1,1);
type = Corner;
},
{
name = _corner.serif;
origin = (0,9);
type = Corner;
},
{
name = _corner.serif;
options = 1;
origin = (0,0);
scale = (-1,1);
type = Corner;
},
{
name = _corner.vertserif;
origin = (0,6);
type = Corner;
}
);
layerId = "B8B720EE-CA8B-4072-B286-8C23F1A5F625";
shapes = (
{
closed = 1;
nodes = (
(102,0,l),
(102,370,l),
(222,370,l),
(222,386,l),
(102,386,l),
(102,684,l),
(240,684,l),
(240,700,l),
(40,700,l),
(40,0,l)
);
}
);
width = 260;
}
);
metricLeft = H;
unicode = 70;
}
{
glyphname = G;
layers = (
{
layerId = "B8B720EE-CA8B-4072-B286-8C23F1A5F625";
shapes = (
{
closed = 1;
nodes = (
(146,280,l),
(146,264,l),
(186,264,l),
(186,0,l),
(248,0,l),
(248,280,l)
);
},
{
closed = 1;
nodes = (
(102,140,l),
(102,560,l),
(40,560,l),
(40,140,l)
);
},
{
closed = 1;
nodes = (
(240,520,l),
(240,560,l),
(178,560,l),
(178,520,l)
);
},
{
closed = 1;
nodes = (
(102,540,l),
(102,590,ls),
(102,629,o),
(102,692,o),
(140,692,cs),
(178,692,o),
(178,629,o),
(178,590,cs),
(178,540,l),
(240,540,l),
(240,580,ls),
(240,613,o),
(240,708,o),
(140,708,cs),
(40,708,o),
(40,613,o),
(40,580,cs),
(40,540,l)
);
},
{
closed = 1;
nodes = (
(40,160,l),
(40,128,ls),
(40,71,o),
(47,-8,o),
(116,-8,cs),
(167,-8,o),
(189,34,o),
(202,84,c),
(202,101,l),
(185,44,o),
(164,23,o),
(138,23,cs),
(102,23,o),
(102,63,o),
(102,110,cs),
(102,160,l)
);
}
);
width = 288;
}
);
metricLeft = O;
metricRight = D;
unicode = 71;
}
{
glyphname = H;
layers = (
{
hints = (
{
name = _corner.serif;
origin = (0,8);
type = Corner;
},
{
name = _corner.serif;
options = 1;
origin = (0,9);
scale = (-1,1);
type = Corner;
},
{
name = _corner.serif;
origin = (0,10);
type = Corner;
},
{
name = _corner.serif;
options = 1;
origin = (0,11);
scale = (-1,1);
type = Corner;
},
{
name = _corner.serif;
origin = (0,2);
type = Corner;
},
{
name = _corner.serif;
options = 1;
origin = (0,3);
scale = (-1,1);
type = Corner;
},
{
name = _corner.serif;
origin = (0,4);
type = Corner;
},
{
name = _corner.serif;
options = 1;
origin = (0,5);
scale = (-1,1);
type = Corner;
}
);
layerId = "B8B720EE-CA8B-4072-B286-8C23F1A5F625";
shapes = (
{
closed = 1;
nodes = (
(186,396,l),
(102,396,l),
(102,700,l),
(40,700,l),
(40,0,l),
(102,0,l),
(102,380,l),
(186,380,l),
(186,0,l),
(248,0,l),
(248,700,l),
(186,700,l)
);
}
);
width = 288;
}
);
metricLeft = n;
metricRight = n;
unicode = 72;
}
{
color = 0;
glyphname = I;
layers = (
{
anchors = (
{
name = bottom;
pos = (71,0);
},
{
name = ogonek;
pos = (128,10);
},
{
name = top;
pos = (71,700);
},
{
name = topleft;
pos = (20,700);
}
);
hints = (
{
name = _corner.serif;
origin = (0,0);
type = Corner;
},
{
name = _corner.serif;
options = 1;
origin = (0,1);
scale = (-1,1);
type = Corner;
},
{
name = _corner.serif;
origin = (0,2);
type = Corner;
},
{
name = _corner.serif;
options = 1;
origin = (0,3);
scale = (-1,1);
type = Corner;
}
);
layerId = "B8B720EE-CA8B-4072-B286-8C23F1A5F625";
shapes = (
{
closed = 1;
nodes = (
(40,0,l),
(102,0,l),
(102,700,l),
(40,700,l)
);
}
);
width = 142;
}
);
metricLeft = H;
metricRight = H;
unicode = 73;
}
{
color = 0;
glyphname = J;
layers = (
{
anchors = (
{
name = bottom;
pos = (144,0);
},
{
name = top;
pos = (217,700);
}
);
hints = (
{
name = _corner.serif;
origin = (0,2);
type = Corner;
},
{
name = _corner.serif;
options = 1;
origin = (0,3);
scale = (-1,1);
type = Corner;
},
{
name = _corner.serif;
options = 1;
origin = (1,3);
scale = (-1,1);
type = Corner;
}
);
layerId = "B8B720EE-CA8B-4072-B286-8C23F1A5F625";
shapes = (
{
closed = 1;
nodes = (
(186,140,l),
(248,140,l),
(248,700,l),
(186,700,l)
);
},
{
closed = 1;
nodes = (
(40,140,l),
(102,140,l),
(102,180,l),
(40,180,l)
);
},
{
pos = (40,160);
ref = _part.uppercase2;
scale = (1,-1);
}
);
width = 288;
}
);
metricRight = U;
unicode = 74;
}
{
color = 0;
glyphname = K;
layers = (
{
anchors = (
{
name = bottom;
pos = (149,0);
},
{
name = top;
pos = (149,700);
}
);
background = {
hints = (
{
name = _corner.serif;
origin = (0,2);
type = Corner;
},
{
name = _corner.serif;
options = 1;
origin = (0,3);
scale = (-1,1);
type = Corner;
},
{
name = _corner.serif;
origin = (0,4);
type = Corner;
},
{
name = _corner.serif;
options = 1;
origin = (0,5);
scale = (-1,1);
type = Corner;
},
{
name = _corner.serif;
origin = (0,8);
type = Corner;
},
{
name = _corner.serif;
options = 1;
origin = (0,9);
scale = (-1,1);
type = Corner;
},
{
name = _corner.serif;
origin = (0,10);
type = Corner;
},
{
name = _corner.serif;
options = 1;
origin = (0,11);
scale = (-1,1);
type = Corner;
}
);
shapes = (
{
closed = 1;
nodes = (
(186,396,l),
(102,396,l),
(102,700,l),
(40,700,l),
(40,0,l),
(102,0,l),
(102,380,l),
(186,380,l),
(186,0,l),
(248,0,l),
(248,700,l),
(186,700,l)
);
}
);
};
hints = (
{
name = _corner.serif;
origin = (1,1);
type = Corner;
},
{
name = _corner.serif;
options = 1;
origin = (1,2);
scale = (-1,1);
type = Corner;
},
{
name = _corner.serif;
origin = (1,3);
type = Corner;
},
{
name = _corner.serif;
options = 1;
origin = (1,0);
scale = (-1,1);
type = Corner;
},
{
name = _corner.serif;
origin = (0,3);
type = Corner;
},
{
name = _corner.serif;
options = 1;
origin = (0,0);
scale = (-1,1);
type = Corner;
},
{
name = _corner.serif;
origin = (2,0);
type = Corner;
},
{
name = _corner.serif;
options = 1;
origin = (2,1);
scale = (-1,1);
type = Corner;
}
);
layerId = "B8B720EE-CA8B-4072-B286-8C23F1A5F625";
shapes = (
{
closed = 1;
nodes = (
(279,0,l),
(146,475,l),
(107,375,l),
(210,0,l)
);
},
{
closed = 1;
nodes = (
(102,0,l),
(102,700,l),
(40,700,l),
(40,0,l)
);
},
{
closed = 1;
nodes = (
(243,700,l),
(219,700,l),
(78,336,l),
(78,279,l)
);
}
);
width = 297;
}
);
metricLeft = H;
unicode = 75;
}
{
glyphname = L;
layers = (
{
hints = (
{
name = _corner.serif;
origin = (0,7);
type = Corner;
},
{
name = _corner.serif;
origin = (0,5);
type = Corner;
},
{
name = _corner.serif;
options = 1;
origin = (0,6);
scale = (-1,1);
type = Corner;
}
);
layerId = "B8B720EE-CA8B-4072-B286-8C23F1A5F625";
shapes = (
{
closed = 1;
nodes = (
(248,0,l),
(248,120,l),
(186,120,l),
(186,16,l),
(102,16,l),
(102,700,l),
(40,700,l),
(40,0,l)
);
}
);
width = 268;
}
);
metricLeft = I;
metricRight = C;
unicode = 76;
}
{
color = 0;
glyphname = M;
layers = (
{
anchors = (
{
name = bottom;
pos = (218,0);
},
{
name = top;
pos = (218,700);
}
);
hints = (
{
name = _corner.serif;
options = 1;
origin = (0,0);
scale = (1,-1);
type = Corner;
},
{
name = _corner.serif;
options = 1;
origin = (0,10);
scale = (-1,1);
type = Corner;
},
{
name = _corner.serif;
origin = (0,11);
type = Corner;
},
{
name = _corner.serif;
origin = (1,4);
type = Corner;
},
{
name = _corner.serif;
options = 1;
origin = (1,0);
scale = (-1,1);
type = Corner;
},
{
name = _corner.serif;
origin = (1,1);
type = Corner;
}
);
layerId = "B8B720EE-CA8B-4072-B286-8C23F1A5F625";
shapes = (
{
closed = 1;
nodes = (
(64,0,l),
(64,567,l),
(52,567,l),
(199,0,l),
(221,0,l),
(371,700,l),
(347,700,l),
(221,113,l),
(236,113,l),
(84,700,l),
(40,700,l),
(40,0,l)
);
},
{
closed = 1;
nodes = (
(395,0,l),
(395,700,l),
(357,700,l),
(333,590,l),
(333,0,l)
);
}
);
width = 435;
}
);
metricLeft = H;
metricRight = H;
unicode = 77;
}
{
color = 0;
glyphname = N;
layers = (
{
anchors = (
{
name = bottom;
pos = (149,0);
},
{
name = top;
pos = (149,700);
}
);
hints = (
{
name = _corner.serif;
origin = (0,5);
type = Corner;
},
{
name = _corner.serif;
options = 1;
origin = (0,6);
scale = (1,-1);
type = Corner;
},
{
name = _corner.serif;
options = 1;
origin = (0,10);
scale = (1,-1);
type = Corner;
},
{
name = _corner.serif;
origin = (0,11);
type = Corner;
},
{
name = _corner.serif;
options = 1;
origin = (0,0);
scale = (1,-1);
type = Corner;
}
);
layerId = "B8B720EE-CA8B-4072-B286-8C23F1A5F625";
shapes = (
{
closed = 1;
nodes = (
(66,0,l),
(66,579,l),
(54,579,l),
(228,0,l),
(258,0,l),
(258,700,l),
(232,700,l),
(232,161,l),
(246,161,l),
(84,700,l),
(40,700,l),
(40,0,l)
);
}
);
width = 298;
}
);
metricLeft = H;
metricRight = H;
unicode = 78;
}
{
glyphname = O;
kernRight = O;
layers = (
{
layerId = "B8B720EE-CA8B-4072-B286-8C23F1A5F625";
shapes = (
{
closed = 1;
nodes = (
(248,140,l),
(248,560,l),
(186,560,l),
(186,140,l)
);
},
{
closed = 1;
nodes = (
(102,140,l),
(102,560,l),
(40,560,l),
(40,140,l)
);
},
{
pos = (40,160);
ref = _part.uppercase2;
scale = (1,-1);
},
{
pos = (40,540);
ref = _part.uppercase2;
}
);
width = 288;
}
);
metricRight = "=|";
unicode = 79;
}
{
glyphname = Q;
kernRight = O;
layers = (
{
layerId = "B8B720EE-CA8B-4072-B286-8C23F1A5F625";
shapes = (
{
closed = 1;
nodes = (
(254,-114,l),
(173,-114,o),
(168,-43,o),
(168,0,c),
(120,0,l),
(120,-66,o),
(120,-128,o),
(254,-128,c)
);
},
{
ref = O;
}
);
width = 288;
}
);
metricLeft = "=O";
metricWidth = "=O";
unicode = 81;
}
{
color = 0;
glyphname = R;
layers = (
{
anchors = (
{
name = bottom;
pos = (147,0);
},
{
name = top;
pos = (147,700);
}
);
hints = (
{
name = _corner.serif;
options = 1;
origin = (0,2);
scale = (1,-1);
type = Corner;
},
{
name = _corner.serif;
origin = (0,3);
type = Corner;
},
{
name = _corner.serif;
options = 1;
origin = (0,0);
scale = (1,-1);
type = Corner;
}
);
layerId = "B8B720EE-CA8B-4072-B286-8C23F1A5F625";
shapes = (
{
closed = 1;
nodes = (
(102,0,l),
(102,700,l),
(40,700,l),
(40,0,l)
);
},
{
closed = 1;
nodes = (
(304,-4,l),
(304,12,l),
(248,12,o),
(248,57,o),
(248,154,cs),
(248,248,l),
(186,248,l),
(186,160,ls),
(186,90,o),
(186,-4,o),
(280,-4,cs)
);
},
{
pos = (80,228);
ref = _part.uppercase1;
},
{
pos = (76,532);
ref = _part.uppercase1;
},
{
pos = (76,548);
ref = _part.uppercase1;
scale = (1,-1);
}
);
width = 294;
}
);
metricLeft = H;
unicode = 82;
}
{
glyphname = S;
layers = (
{
background = {
shapes = (
{
closed = 1;
nodes = (
(30,140,l),
(92,140,l),
(92,180,l),
(30,180,l)
);
},
{
closed = 1;
nodes = (
(238,520,l),
(238,560,l),
(176,560,l),
(176,520,l)
);
},
{
closed = 1;
nodes = (
(238,140,l),
(238,160,ls),
(238,283,o),
(92,427,o),
(92,560,c),
(30,560,l),
(30,540,ls),
(30,417,o),
(176,273,o),
(176,140,c)
);
},
{
pos = (30,540);
ref = _part.uppercase2;
},
{
pos = (30,160);
ref = _part.uppercase2;
scale = (1,-1);
}
);
};
layerId = "B8B720EE-CA8B-4072-B286-8C23F1A5F625";
shapes = (
{
closed = 1;
nodes = (
(59,708,o),
(38,665,o),
(38,572,cs),
(38,417,o),
(176,273,o),
(176,127,cs),
(176,43,o),
(170,8,o),
(134,8,cs),
(92,8,o),
(92,71,o),
(92,110,cs),
(92,180,l),
(30,180,l),
(30,120,ls),
(30,87,o),
(30,-8,o),
(134,-8,cs),
(217,-8,o),
(238,47,o),
(238,143,cs),
(238,283,o),
(100,427,o),
(100,586,cs),
(100,657,o),
(106,692,o),
(138,692,cs),
(176,692,o),
(176,629,o),
(176,590,cs),
(176,540,l),
(238,540,l),
(238,580,ls),
(238,613,o),
(238,708,o),
(138,708,cs)
);
}
);
width = 268;
}
);
unicode = 83;
}
{
glyphname = T;
layers = (
{
hints = (
{
name = _corner.serif;
origin = (0,2);
type = Corner;
},
{
name = _corner.serif;
options = 1;
origin = (0,3);
scale = (-1,1);
type = Corner;
},
{
name = _corner.vertserif;
options = 1;
origin = (0,0);
scale = (-1,1);
type = Corner;
},
{
name = _corner.vertserif;
origin = (0,5);
type = Corner;
}
);
layerId = "B8B720EE-CA8B-4072-B286-8C23F1A5F625";
shapes = (
{
closed = 1;
nodes = (
(-6,684,l),
(86,684,l),
(86,0,l),
(148,0,l),
(148,684,l),
(240,684,l),
(240,700,l),
(-6,700,l)
);
}
);
width = 234;
}
);
metricRight = "=|";
unicode = 84;
}
{
color = 0;
glyphname = U;
layers = (
{
anchors = (
{
name = bottom;
pos = (136,0);
},
{
name = ogonek;
pos = (136,0);
},
{
name = top;
pos = (136,700);
},
{
name = topright;
pos = (252,700);
}
);
hints = (
{
name = _corner.serif;
origin = (0,1);
type = Corner;
},
{
name = _corner.serif;
options = 1;
origin = (0,2);
scale = (-1,1);
type = Corner;
},
{
name = _corner.serif;
origin = (1,1);
type = Corner;
},
{
name = _corner.serif;
options = 1;
origin = (1,2);
scale = (-1,1);
type = Corner;
}
);
layerId = "B8B720EE-CA8B-4072-B286-8C23F1A5F625";
shapes = (
{
closed = 1;
nodes = (
(232,140,l),
(232,700,l),
(206,700,l),
(206,140,l)
);
},
{
closed = 1;
nodes = (
(102,140,l),
(102,700,l),
(40,700,l),
(40,140,l)
);
},
{
closed = 1;
nodes = (
(40,120,ls),
(40,87,o),
(40,-8,o),
(136,-8,cs),
(232,-8,o),
(232,87,o),
(232,130,cs),
(232,160,l),
(206,160,l),
(206,126,ls),
(206,83,o),
(195,20,o),
(151,20,cs),
(111,20,o),
(102,71,o),
(102,116,cs),
(102,160,l),
(40,160,l)
);
}
);
width = 272;
}
);
metricLeft = H;
metricRight = H;
unicode = 85;
}
{
color = 0;
glyphname = V;
kernLeft = V;
kernRight = V;
layers = (
{
anchors = (
{
name = bottom;
pos = (166,0);
},
{
name = top;
pos = (166,700);
}
);
hints = (
{
name = _corner.serif;
origin = (0,1);
type = Corner;
},
{
name = _corner.serif;
options = 1;
origin = (0,2);
scale = (1,-1);
type = Corner;
},
{
name = _corner.serif;
origin = (0,5);
type = Corner;
},
{
name = _corner.serif;
options = 1;
origin = (0,6);
scale = (1,-1);
type = Corner;
}
);
layerId = "B8B720EE-CA8B-4072-B286-8C23F1A5F625";
shapes = (
{
closed = 1;
nodes = (
(179,-8,l),
(297,700,l),
(274,700,l),
(182,146,l),
(191,146,l),
(107,700,l),
(35,700,l),
(153,-8,l)
);
}
);
width = 332;
}
);
metricRight = "=|";
unicode = 86;
}
{
color = 0;
glyphname = X;
layers = (
{
anchors = (
{
name = bottom;
pos = (142,0);
},
{
name = top;
pos = (142,700);
}
);
hints = (
{
name = _corner.serif;
origin = (0,1);
type = Corner;
},
{
name = _corner.serif;
options = 1;
origin = (0,2);
scale = (-1,1);
type = Corner;
},
{
name = _corner.serif;
origin = (0,4);
type = Corner;
},
{
name = _corner.serif;
options = 1;
origin = (0,5);
scale = (-1,1);
type = Corner;
},
{
name = _corner.serif;
origin = (1,2);
scale = (-1,-1);
type = Corner;
},
{
name = _corner.serif;
options = 1;
origin = (1,3);
scale = (1,-1);
type = Corner;
},
{
name = _corner.serif;
origin = (1,6);
scale = (-1,-1);
type = Corner;
},
{
name = _corner.serif;
options = 1;
origin = (1,7);
scale = (1,-1);
type = Corner;
}
);
layerId = "B8B720EE-CA8B-4072-B286-8C23F1A5F625";
shapes = (
{
closed = 1;
nodes = (
(125,343,l),
(218,0,l),
(286,0,l),
(171,404,l),
(90,700,l),
(22,700,l)
);
},
{
closed = 1;
nodes = (
(154,388,l),
(127,388,l),
(8,0,l),
(32,0,l),
(141,360,l),
(168,360,l),
(266,700,l),
(242,700,l)
);
}
);
width = 284;
}
);
unicode = 88;
}
{
color = 0;
glyphname = Y;
layers = (
{
anchors = (
{
name = bottom;
pos = (162,0);
},
{
name = top;
pos = (162,700);
},
{
name = topleft;
pos = (20,700);
}
);
hints = (
{
name = _corner.serif;
origin = (0,9);
type = Corner;
},
{
name = _corner.serif;
options = 1;
origin = (0,0);
scale = (1,-1);
type = Corner;
},
{
name = _corner.serif;
options = 1;
origin = (0,7);
scale = (1,-1);
type = Corner;
},
{
name = _corner.serif;
origin = (0,6);
type = Corner;
},
{
name = _corner.serif;
options = 1;
origin = (0,3);
scale = (1,-1);
type = Corner;
},
{
name = _corner.serif;
origin = (0,2);
type = Corner;
}
);
layerId = "B8B720EE-CA8B-4072-B286-8C23F1A5F625";
shapes = (
{
closed = 1;
nodes = (
(203,0,l),
(203,364,l),
(287,700,l),
(265,700,l),
(184,375,l),
(199,375,l),
(104,700,l),
(36,700,l),
(141,343,l),
(141,0,l)
);
}
);
width = 324;
}
);
metricRight = "=|";
unicode = 89;
}
{
glyphname = Z;
layers = (
{
hints = (
{
name = _corner.vertserif;
options = 1;
origin = (0,7);
scale = (-1,1);
type = Corner;
}
);
layerId = "B8B720EE-CA8B-4072-B286-8C23F1A5F625";
shapes = (
{
closed = 1;
nodes = (
(244,0,l),
(244,120,l),
(182,120,l),
(182,16,l),
(82,16,l),
(252,700,l),
(30,700,l),
(30,684,l),
(183,684,l),
(10,0,l)
);
}
);
width = 264;
}
);
unicode = 90;
}
{
glyphname = bracketleft;
layers = (
{
background = {
shapes = (
{
pos = (20,0);
ref = parenleft;
}
);
};
layerId = "B8B720EE-CA8B-4072-B286-8C23F1A5F625";
shapes = (
{
closed = 1;
nodes = (
(192,-176,l),
(192,-160,l),
(108,-160,l),
(108,684,l),
(192,684,l),
(192,700,l),
(48,700,l),
(48,-176,l)
);
}
);
width = 196;
}
);
unicode = 91;
}
{
glyphname = asciicircum;
layers = (
{
layerId = "B8B720EE-CA8B-4072-B286-8C23F1A5F625";
shapes = (
{
closed = 1;
nodes = (
(67,520,l),
(140,677,l),
(213,520,l),
(248,520,l),
(160,720,l),
(120,720,l),
(32,520,l)
);
}
);
width = 280;
}
);
metricRight = "=|";
unicode = 94;
}
{
color = 0;
glyphname = a;
kernLeft = o;
kernRight = n;
layers = (
{
anchors = (
{
name = bottom;
pos = (133,0);
},
{
name = ogonek;
pos = (195,0);
},
{
name = top;
pos = (133,500);
}
);
hints = (
{
name = _corner.serif;
options = 1;
origin = (0,0);
scale = (1,-1);
type = Corner;
}
);
layerId = "B8B720EE-CA8B-4072-B286-8C23F1A5F625";
shapes = (
{
closed = 1;
nodes = (
(225,0,l),
(225,360,l),
(165,360,l),
(165,0,l)
);
},
{
closed = 1;
nodes = (
(225,340,l),
(225,380,ls),
(225,413,o),
(225,508,o),
(128,508,cs),
(72,508,o),
(35,475,o),
(35,429,cs),
(35,400,o),
(49,386,o),
(69,386,c),
(88,386,o),
(101,399,o),
(101,418,cs),
(101,435,o),
(90,448,o),
(74,448,cs),
(59,448,o),
(47,436,o),
(47,420,c),
(51,420,l),
(47,464,o),
(77,492,o),
(114,492,cs),
(165,492,o),
(165,439,o),
(165,390,cs),
(165,340,l)
);
},
{
alignment = -1;
piece = {
height = 60;
};
pos = (25,0);
ref = _part.mid;
}
);
width = 265;
}
);
metricLeft = c;
metricRight = n;
unicode = 97;
}
{
color = 0;
glyphname = b;
kernLeft = h;
kernRight = o;
layers = (
{
anchors = (
{
name = bottom;
pos = (133,0);
},
{
name = top;
pos = (133,720);
}
);
hints = (
{
name = _corner.serif;
options = 1;
origin = (0,2);
scale = (1,-1);
type = Corner;
},
{
name = _corner.serif;
origin = (0,3);
type = Corner;
}
);
layerId = "B8B720EE-CA8B-4072-B286-8C23F1A5F625";
shapes = (
{
closed = 1;
nodes = (
(100,0,l),
(100,720,l),
(40,720,l),
(40,0,l)
);
},
{
pos = (240,0);
ref = _part.mid;
scale = (-1,1);
}
);
width = 265;
}
);
metricLeft = h;
metricRight = o;
unicode = 98;
}
{
glyphname = c;
kernLeft = o;
kernRight = o;
layers = (
{
layerId = "B8B720EE-CA8B-4072-B286-8C23F1A5F625";
shapes = (
{
closed = 1;
nodes = (
(85,140,l),
(85,360,l),
(25,360,l),
(25,140,l)
);
},
{
pos = (25,160);
ref = _part.lowercase2;
scale = (1,-1);
},
{
pos = (25,340);
ref = _part.lowercase2;
}
);
width = 249;
}
);
metricLeft = o;
unicode = 99;
}
{
color = 0;
glyphname = d;
layers = (
{
anchors = (
{
name = bottom;
pos = (133,0);
},
{
name = center;
pos = (133,250);
},
{
name = top;
pos = (133,720);
},
{
name = topright;
pos = (245,500);
}
);
hints = (
{
name = _corner.serif;
options = 1;
origin = (0,0);
scale = (1,-1);
type = Corner;
},
{
name = _corner.serif;
options = 1;
origin = (0,2);
scale = (1,-1);
type = Corner;
}
);
layerId = "B8B720EE-CA8B-4072-B286-8C23F1A5F625";
shapes = (
{
closed = 1;
nodes = (
(225,0,l),
(225,720,l),
(165,720,l),
(165,0,l)
);
},
{
pos = (25,0);
ref = _part.mid;
}
);
width = 265;
}
);
metricLeft = o;
metricRight = l;
unicode = 100;
}
{
color = 0;
glyphname = e;
kernLeft = o;
kernRight = o;
layers = (
{
anchors = (
{
name = bottom;
pos = (125,0);
},
{
name = ogonek;
pos = (149,0);
},
{
name = top;
pos = (125,500);
}
);
layerId = "B8B720EE-CA8B-4072-B286-8C23F1A5F625";
shapes = (
{
closed = 1;
nodes = (
(85,140,l),
(85,360,l),
(25,360,l),
(25,140,l)
);
},
{
closed = 1;
nodes = (
(225,310,l),
(225,360,l),
(165,360,l),
(165,326,l),
(75,326,l),
(75,310,l)
);
},
{
alignment = -1;
pos = (25,160);
ref = _part.lowercase2;
scale = (1,-1);
},
{
alignment = -1;
pos = (25,340);
ref = _part.lowercase2;
}
);
width = 250;
}
);
metricLeft = o;
metricRight = o;
unicode = 101;
}
{
glyphname = f;
kernRight = f;
layers = (
{
hints = (
{
name = _corner.serif;
origin = (0,3);
type = Corner;
},
{
name = _corner.serif;
options = 1;
origin = (0,0);
scale = (-1.3,1);
type = Corner;
}
);
layerId = "B8B720EE-CA8B-4072-B286-8C23F1A5F625";
shapes = (
{
closed = 1;
nodes = (
(120,0,l),
(120,580,l),
(60,580,l),
(60,0,l)
);
},
{
closed = 1;
nodes = (
(230,484,l),
(230,500,l),
(10,500,l),
(10,484,l)
);
},
{
closed = 1;
nodes = (
(120,560,l),
(120,600,ls),
(120,655,o),
(144,712,o),
(193,712,cs),
(230,712,o),
(260,679,o),
(260,640,c),
(266,640,l),
(266,654,o),
(259,671,o),
(240,671,cs),
(223,671,o),
(212,659,o),
(212,639,cs),
(212,618,o),
(224,604,o),
(244,604,c),
(262,604,o),
(276,616,o),
(276,643,cs),
(276,682,o),
(247,728,o),
(179,728,cs),
(84,728,o),
(60,635,o),
(60,590,cs),
(60,560,l)
);
}
);
width = 210;
}
);
metricLeft = t;
unicode = 102;
}
{
color = 0;
glyphname = g;
kernLeft = n;
layers = (
{
anchors = (
{
name = bottom;
pos = (126,-240);
},
{
name = top;
pos = (126,500);
}
);
layerId = "B8B720EE-CA8B-4072-B286-8C23F1A5F625";
shapes = (
{
closed = 1;
nodes = (
(225,-100,l),
(225,46,ls),
(225,94,o),
(225,142,o),
(132,142,cs),
(83,142,o),
(59,142,o),
(59,164,cs),
(59,173,o),
(63,183,o),
(83,207,c),
(75,217,l),
(31,185,o),
(25,165,o),
(25,148,cs),
(25,108,o),
(63,81,o),
(117,81,cs),
(165,81,o),
(165,59,o),
(165,1,cs),
(165,-100,l)
);
},
{
closed = 1;
nodes = (
(85,-100,l),
(85,0,l),
(25,0,l),
(25,-100,l)
);
},
{
closed = 1;
nodes = (
(166,525,o),
(187,555,o),
(227,555,c),
(227,562,l),
(214,562,o),
(203,550,o),
(203,532,cs),
(203,513,o),
(214,500,o),
(232,500,cs),
(249,500,o),
(261,511,o),
(261,532,cs),
(261,553,o),
(248,568,o),
(222,568,cs),
(186,568,o),
(157,539,o),
(145,502,c),
(156,498,l)
);
},
{
pos = (25,360);
ref = _part.lowercase2;
scale = (1,-1);
},
{
pos = (25,340);
ref = _part.lowercase2;
},
{
pos = (25,-80);
ref = _part.lowercase2;
scale = (1,-1);
}
);
width = 251;
}
);
metricLeft = a;
unicode = 103;
}
{
color = 0;
glyphname = k;
kernLeft = h;
kernRight = x;
layers = (
{
anchors = (
{
name = bottom;
pos = (129,0);
},
{
name = top;
pos = (129,720);
}
);
hints = (
{
name = _corner.serif;
origin = (0,3);
type = Corner;
},
{
name = _corner.serif;
options = 1;
origin = (0,0);
scale = (-1,1);
type = Corner;
}
);
layerId = "B8B720EE-CA8B-4072-B286-8C23F1A5F625";
shapes = (
{
closed = 1;
nodes = (
(274,0,l),
(150,372,l),
(109,306,l),
(208,0,l)
);
},
{
closed = 1;
nodes = (
(228,484,l),
(262,484,l),
(262,500,l),
(180,500,l),
(180,484,l),
(206,484,l),
(77,269,l),
(77,234,l)
);
},
{
ref = l;
}
);
width = 258;
}
);
metricLeft = h;
unicode = 107;
}
{
color = 0;
glyphname = l;
kernLeft = h;
layers = (
{
anchors = (
{
name = bottom;
pos = (70,0);
},
{
name = center;
pos = (70,360);
},
{
name = top;
pos = (70,720);
},
{
name = topright;
pos = (120,720);
}
);
hints = (
{
name = _corner.serif;
options = 1;
origin = (0,0);
scale = (1,-1);
type = Corner;
},
{
name = _corner.serif;
options = 1;
origin = (0,2);
scale = (1,-1);
type = Corner;
},
{
name = _corner.serif;
origin = (0,3);
scale = (-1,-1);
type = Corner;
}
);
layerId = "B8B720EE-CA8B-4072-B286-8C23F1A5F625";
shapes = (
{
closed = 1;
nodes = (
(100,0,l),
(100,720,l),
(40,720,l),
(40,0,l)
);
}
);
width = 140;
}
);
metricLeft = n;
metricRight = n;
unicode = 108;
}
{
glyphname = m;
kernLeft = n;
kernRight = n;
layers = (
{
background = {
shapes = (
{
closed = 1;
nodes = (
(380,340,l),
(380,380,ls),
(380,425,o),
(375,508,o),
(305,508,cs),
(255,508,o),
(233,466,o),
(220,416,c),
(220,399,l),
(237,456,o),
(258,477,o),
(284,477,cs),
(320,477,o),
(320,437,o),
(320,390,cs),
(320,340,l)
);
}
);
};
hints = (
{
name = _corner.serif;
origin = (0,3);
type = Corner;
},
{
name = _corner.serif;
options = 1;
origin = (0,0);
scale = (-1,1);
type = Corner;
}
);
layerId = "B8B720EE-CA8B-4072-B286-8C23F1A5F625";
shapes = (
{
closed = 1;
nodes = (
(380,0,l),
(380,360,l),
(320,360,l),
(320,0,l)
);
},
{
closed = 1;
nodes = (
(380,340,l),
(380,380,ls),
(380,425,o),
(375,508,o),
(304,508,cs),
(267,508,o),
(239,486,o),
(220,458,c),
(220,428,l),
(236,464,o),
(264,477,o),
(283,477,cs),
(320,477,o),
(320,437,o),
(320,390,cs),
(320,340,l)
);
},
{
ref = n;
}
);
width = 420;
}
);
metricLeft = n;
metricRight = n;
unicode = 109;
}
{
glyphname = o;
kernLeft = o;
kernRight = o;
layers = (
{
layerId = "B8B720EE-CA8B-4072-B286-8C23F1A5F625";
shapes = (
{
closed = 1;
nodes = (
(85,140,l),
(85,360,l),
(25,360,l),
(25,140,l)
);
},
{
closed = 1;
nodes = (
(225,140,l),
(225,360,l),
(165,360,l),
(165,140,l)
);
},
{
pos = (25,160);
ref = _part.lowercase2;
scale = (1,-1);
},
{
pos = (25,340);
ref = _part.lowercase2;
}
);
width = 250;
}
);
metricRight = "=|";
unicode = 111;
}
{
glyphname = q;
kernLeft = o;
layers = (
{
hints = (
{
name = _corner.serif;
options = 1;
origin = (0,0);
scale = (1,-1);
type = Corner;
},
{
name = _corner.serif;
origin = (0,1);
type = Corner;
},
{
name = _corner.serif;
origin = (0,3);
type = Corner;
}
);
layerId = "B8B720EE-CA8B-4072-B286-8C23F1A5F625";
shapes = (
{
closed = 1;
nodes = (
(225,-240,l),
(225,500,l),
(165,500,l),
(165,-240,l)
);
},
{
pos = (25,0);
ref = _part.mid;
}
);
width = 265;
}
);
metricLeft = o;
metricRight = n;
unicode = 113;
}
{
glyphname = r;
kernLeft = n;
kernRight = r;
layers = (
{
hints = (
{
name = _corner.serif;
options = 1;
origin = (0,4);
scale = (1,-1);
type = Corner;
},
{
name = _corner.serif;
origin = (0,5);
scale = (-1,-1);
type = Corner;
}
);
layerId = "B8B720EE-CA8B-4072-B286-8C23F1A5F625";
shapes = (
{
closed = 1;
nodes = (
(140,0,l),
(140,16,l),
(100,16,l),
(100,500,l),
(40,500,l),
(40,0,l)
);
},
{
closed = 1;
nodes = (
(202,408,o),
(216,419,o),
(216,451,cs),
(216,484,o),
(201,508,o),
(167,508,cs),
(128,508,o),
(102,475,o),
(80,440,c),
(80,414,l),
(104,458,o),
(139,491,o),
(169,491,cs),
(189,491,o),
(203,477,o),
(194,444,c),
(206,444,l),
(206,458,o),
(201,473,o),
(182,473,cs),
(166,473,o),
(152,461,o),
(152,441,cs),
(152,421,o),
(164,408,o),
(184,408,c)
);
}
);
width = 218;
}
);
metricLeft = n;
unicode = 114;
}
{
color = 0;
glyphname = s;
kernLeft = o;
kernRight = o;
layers = (
{
anchors = (
{
name = bottom;
pos = (125,0);
},
{
name = top;
pos = (133,500);
}
);
layerId = "B8B720EE-CA8B-4072-B286-8C23F1A5F625";
shapes = (
{
closed = 1;
nodes = (
(223,390,ls),
(223,438,o),
(223,508,o),
(133,508,cs),
(41,508,o),
(41,434,o),
(41,405,cs),
(41,269,o),
(165,219,o),
(165,110,cs),
(165,71,o),
(165,8,o),
(125,8,cs),
(85,8,o),
(85,71,o),
(85,110,cs),
(85,160,l),
(25,160,l),
(25,120,ls),
(25,87,o),
(25,-8,o),
(125,-8,cs),
(225,-8,o),
(225,87,o),
(225,120,cs),
(225,241,o),
(99,290,o),
(99,413,cs),
(99,446,o),
(99,492,o),
(133,492,cs),
(165,492,o),
(165,445,o),
(165,390,cs),
(165,360,l),
(223,360,l)
);
}
);
width = 250;
}
);
metricLeft = o;
metricRight = o;
unicode = 115;
}
{
glyphname = t;
layers = (
{
layerId = "B8B720EE-CA8B-4072-B286-8C23F1A5F625";
shapes = (
{
closed = 1;
nodes = (
(120,140,l),
(120,662,l),
(60,662,l),
(60,140,l)
);
},
{
closed = 1;
nodes = (
(204,-8,o),
(204,49,o),
(204,70,c),
(186,70,l),
(186,34,o),
(171,14,o),
(155,14,cs),
(131,14,o),
(120,58,o),
(120,120,cs),
(120,160,l),
(60,160,l),
(60,130,ls),
(60,87,o),
(65,-8,o),
(143,-8,cs)
);
},
{
closed = 1;
nodes = (
(200,484,l),
(200,500,l),
(10,500,l),
(10,484,l)
);
}
);
width = 210;
}
);
unicode = 116;
}
{
glyphname = u;
kernLeft = n;
kernRight = n;
layers = (
{
hints = (
{
name = _corner.serif;
options = 1;
origin = (0,0);
scale = (1,-1);
type = Corner;
},
{
name = _corner.serif;
options = 1;
origin = (0,2);
scale = (1,-1);
type = Corner;
},
{
name = _corner.serif;
options = 1;
origin = (0,2);
scale = (-1,1);
type = Corner;
},
{
name = _corner.serif;
options = 1;
origin = (1,2);
scale = (1,-1);
type = Corner;
}
);
layerId = "B8B720EE-CA8B-4072-B286-8C23F1A5F625";
shapes = (
{
closed = 1;
nodes = (
(240,0,l),
(240,500,l),
(180,500,l),
(180,0,l)
);
},
{
closed = 1;
nodes = (
(100,140,l),
(100,500,l),
(40,500,l),
(40,140,l)
);
},
{
angle = 180;
pos = (200,160);
ref = _part.lowercase1;
}
);
width = 280;
}
);
metricLeft = l;
metricRight = n;
unicode = 117;
}
{
glyphname = v;
kernLeft = v;
kernRight = v;
layers = (
{
hints = (
{
name = _corner.serif;
origin = (0,1);
type = Corner;
},
{
name = _corner.serif;
options = 1;
origin = (0,2);
scale = (-1,1);
type = Corner;
},
{
name = _corner.serif;
origin = (0,5);
scale = (-1,-1);
type = Corner;
},
{
name = _corner.serif;
options = 1;
origin = (0,6);
scale = (1,-1);
type = Corner;
}
);
layerId = "B8B720EE-CA8B-4072-B286-8C23F1A5F625";
shapes = (
{
closed = 1;
nodes = (
(156,-8,l),
(252,500,l),
(229,500,l),
(159,122,l),
(170,122,l),
(100,500,l),
(34,500,l),
(134,-8,l)
);
}
);
width = 286;
}
);
metricRight = "=|";
unicode = 118;
}
{
glyphname = x;
kernRight = x;
layers = (
{
hints = (
{
name = _corner.serif;
origin = (0,3);
type = Corner;
},
{
name = _corner.serif;
options = 1;
origin = (0,4);
scale = (-1,1);
type = Corner;
},
{
name = _corner.serif;
origin = (1,1);
scale = (-1,-1);
type = Corner;
},
{
name = _corner.serif;
options = 1;
origin = (1,2);
scale = (1,-1);
type = Corner;
},
{
name = _corner.serif;
origin = (0,7);
type = Corner;
},
{
name = _corner.serif;
options = 1;
origin = (0,0);
scale = (-1,1);
type = Corner;
},
{
name = _corner.serif;
origin = (1,3);
scale = (-1,-1);
type = Corner;
},
{
name = _corner.serif;
options = 1;
origin = (1,0);
scale = (1,-1);
type = Corner;
}
);
layerId = "B8B720EE-CA8B-4072-B286-8C23F1A5F625";
shapes = (
{
closed = 1;
nodes = (
(56,0,l),
(132,240,l),
(149,240,l),
(232,500,l),
(209,500,l),
(138,272,l),
(120,272,l),
(34,0,l)
);
},
{
closed = 1;
nodes = (
(240,0,l),
(109,500,l),
(44,500,l),
(176,0,l)
);
}
);
width = 274;
}
);
metricRight = "=|";
unicode = 120;
}
{
glyphname = y;
kernLeft = v;
kernRight = v;
layers = (
{
hints = (
{
name = _corner.serif;
origin = (1,1);
type = Corner;
},
{
name = _corner.serif;
options = 1;
origin = (1,2);
scale = (-1,1);
type = Corner;
}
);
layerId = "B8B720EE-CA8B-4072-B286-8C23F1A5F625";
shapes = (
{
closed = 1;
nodes = (
(119,-248,o),
(134,-189,o),
(152,-85,cs),
(249,484,l),
(281,484,l),
(281,500,l),
(200,500,l),
(200,484,l),
(228,484,l),
(134,-85,ls),
(118,-181,o),
(101,-231,o),
(66,-231,cs),
(50,-231,o),
(27,-221,o),
(27,-199,c),
(23,-199,l),
(23,-213,o),
(32,-225,o),
(49,-225,cs),
(68,-225,o),
(79,-212,o),
(79,-192,cs),
(79,-171,o),
(67,-155,o),
(48,-155,cs),
(29,-155,o),
(11,-171,o),
(11,-198,cs),
(11,-230,o),
(39,-248,o),
(68,-248,cs)
);
},
{
closed = 1;
nodes = (
(176,123,l),
(102,500,l),
(38,500,l),
(147,-38,l)
);
}
);
width = 286;
}
);
metricRight = v;
metricWidth = v;
unicode = 121;
}
{
glyphname = z;
layers = (
{
layerId = "B8B720EE-CA8B-4072-B286-8C23F1A5F625";
shapes = (
{
closed = 1;
nodes = (
(194,0,l),
(194,16,l),
(68,16,l),
(184,486,l),
(184,500,l),
(24,500,l),
(24,484,l),
(130,484,l),
(14,16,l),
(14,0,l)
);
}
);
width = 208;
}
);
metricRight = "=|";
unicode = 122;
}
{
glyphname = braceleft;
layers = (
{
layerId = "B8B720EE-CA8B-4072-B286-8C23F1A5F625";
shapes = (
{
closed = 1;
nodes = (
(214,-160,l),
(178,-156,o),
(138,-142,o),
(138,-26,cs),
(138,100,ls),
(138,206,o),
(113,242,o),
(54,262,c),
(113,282,o),
(138,318,o),
(138,424,cs),
(138,550,ls),
(138,666,o),
(178,680,o),
(214,684,c),
(214,700,l),
(118,696,o),
(78,652,o),
(78,540,cs),
(78,414,ls),
(78,308,o),
(56,278,o),
(8,270,c),
(8,254,l),
(56,246,o),
(78,216,o),
(78,110,cs),
(78,-16,ls),
(78,-128,o),
(118,-172,o),
(214,-176,c)
);
}
);
width = 216;
}
);
unicode = 123;
}
{
glyphname = asciitilde;
layers = (
{
background = {
shapes = (
{
closed = 1;
nodes = (
(353,296,o),
(394,319,o),
(420,372,c),
(403,382,l),
(382,352,o),
(356,328,o),
(324,328,cs),
(268,328,o),
(232,404,o),
(164,404,cs),
(127,404,o),
(86,381,o),
(60,328,c),
(77,318,l),
(98,348,o),
(124,372,o),
(156,372,cs),
(212,372,o),
(248,296,o),
(316,296,cs)
);
}
);
};
layerId = "B8B720EE-CA8B-4072-B286-8C23F1A5F625";
shapes = (
{
closed = 1;
nodes = (
(248,296,o),
(212,372,o),
(155,372,cs),
(124,372,o),
(91,350,o),
(71,320,c),
(60,326,l),
(86,380,o),
(126,404,o),
(164,404,cs),
(232,404,o),
(268,328,o),
(325,328,cs),
(356,328,o),
(389,350,o),
(409,380,c),
(420,374,l),
(394,320,o),
(354,296,o),
(316,296,cs)
);
}
);
width = 480;
}
);
metricLeft = minus;
metricRight = minus;
unicode = 126;
}
{
glyphname = cent;
layers = (
{
layerId = "B8B720EE-CA8B-4072-B286-8C23F1A5F625";
shapes = (
{
closed = 1;
nodes = (
(137,500,l),
(137,600,l),
(113,600,l),
(113,500,l)
);
},
{
closed = 1;
nodes = (
(137,-100,l),
(137,0,l),
(113,0,l),
(113,-100,l)
);
},
{
ref = c;
}
);
width = 249;
}
);
metricLeft = c;
metricRight = c;
unicode = 162;
}
{
glyphname = sterling;
layers = (
{
background = {
shapes = (
{
pos = (30,0);
ref = S;
}
);
};
layerId = "B8B720EE-CA8B-4072-B286-8C23F1A5F625";
shapes = (
{
closed = 1;
nodes = (
(264,0,l),
(264,52,l),
(50,52,l),
(50,40,l),
(111,78,o),
(170,155,o),
(170,258,cs),
(170,349,o),
(124,388,o),
(124,540,cs),
(124,622,o),
(138,712,o),
(200,712,cs),
(234,712,o),
(260,685,o),
(260,630,c),
(266,630,l),
(266,644,o),
(259,661,o),
(240,661,cs),
(224,661,o),
(212,649,o),
(212,629,cs),
(212,609,o),
(224,594,o),
(244,594,cs),
(258,594,o),
(276,601,o),
(276,639,cs),
(276,655,o),
(273,728,o),
(190,728,cs),
(108,728,o),
(62,657,o),
(62,532,cs),
(62,401,o),
(111,352,o),
(111,239,cs),
(111,172,o),
(94,91,o),
(38,46,c),
(38,0,l)
);
},
{
closed = 1;
nodes = (
(236,442,l),
(236,458,l),
(16,458,l),
(16,442,l)
);
}
);
width = 276;
}
);
unicode = 163;
}
{
glyphname = yen;
layers = (
{
background = {
anchors = (
{
name = bottom;
pos = (162,0);
},
{
name = top;
pos = (162,700);
},
{
name = topleft;
pos = (20,700);
}
);
shapes = (
{
ref = Y;
}
);
};
hints = (
{
name = _corner.serif;
options = 1;
origin = (0,0);
scale = (1,-1);
type = Corner;
},
{
name = _corner.serif;
origin = (0,2);
type = Corner;
},
{
name = _corner.serif;
options = 1;
origin = (0,3);
scale = (1,-1);
type = Corner;
},
{
name = _corner.serif;
origin = (0,6);
type = Corner;
},
{
name = _corner.serif;
options = 1;
origin = (0,7);
scale = (1,-1);
type = Corner;
},
{
name = _corner.serif;
origin = (0,9);
type = Corner;
}
);
layerId = "B8B720EE-CA8B-4072-B286-8C23F1A5F625";
shapes = (
{
closed = 1;
nodes = (
(203,0,l),
(203,376,l),
(287,700,l),
(265,700,l),
(187,396,l),
(199,396,l),
(104,700,l),
(36,700,l),
(141,364,l),
(141,0,l)
);
},
{
closed = 1;
nodes = (
(292,258,l),
(292,282,l),
(52,282,l),
(52,258,l)
);
},
{
closed = 1;
nodes = (
(292,358,l),
(292,382,l),
(52,382,l),
(52,358,l)
);
}
);
width = 323;
}
);
metricLeft = Y;
metricRight = Y;
unicode = 165;
}
{
glyphname = brokenbar;
layers = (
{
layerId = "B8B720EE-CA8B-4072-B286-8C23F1A5F625";
shapes = (
{
closed = 1;
nodes = (
(128,322,l),
(128,700,l),
(80,700,l),
(80,322,l)
);
},
{
closed = 1;
nodes = (
(128,-176,l),
(128,202,l),
(80,202,l),
(80,-176,l)
);
}
);
width = 208;
}
);
metricLeft = bar;
metricRight = bar;
unicode = 166;
}
{
glyphname = section;
layers = (
{
background = {
shapes = (
{
closed = 1;
nodes = (
(222,250,o),
(246,314,o),
(246,356,cs),
(246,460,o),
(94,526,o),
(94,636,cs),
(94,668,o),
(107,712,o),
(152,712,cs),
(188,712,o),
(214,684,o),
(210,640,c),
(214,640,l),
(214,656,o),
(202,668,o),
(187,668,cs),
(171,668,o),
(160,655,o),
(160,638,cs),
(160,619,o),
(173,606,o),
(192,606,cs),
(212,606,o),
(226,620,o),
(226,650,cs),
(226,695,o),
(196,728,o),
(138,728,cs),
(51,728,o),
(38,653,o),
(38,617,cs),
(38,491,o),
(198,421,o),
(198,330,cs),
(198,299,o),
(179,264,o),
(123,264,c),
(123,250,l)
);
},
{
closed = 1;
nodes = (
(213,-8,o),
(238,60,o),
(238,108,cs),
(238,229,o),
(78,299,o),
(78,390,cs),
(78,421,o),
(97,456,o),
(153,456,c),
(153,470,l),
(54,470,o),
(30,406,o),
(30,364,cs),
(30,260,o),
(182,190,o),
(182,87,cs),
(182,46,o),
(158,8,o),
(119,8,cs),
(78,8,o),
(50,48,o),
(54,92,c),
(50,92,l),
(50,76,o),
(62,64,o),
(77,64,cs),
(93,64,o),
(104,77,o),
(104,94,cs),
(104,113,o),
(91,126,o),
(72,126,cs),
(52,126,o),
(38,112,o),
(38,82,cs),
(38,37,o),
(68,-8,o),
(133,-8,cs)
);
}
);
};
layerId = "B8B720EE-CA8B-4072-B286-8C23F1A5F625";
shapes = (
{
closed = 1;
nodes = (
(222,168,o),
(246,250,o),
(246,297,cs),
(246,414,o),
(94,506,o),
(94,616,cs),
(94,648,o),
(107,692,o),
(152,692,cs),
(188,692,o),
(214,664,o),
(210,620,c),
(214,620,l),
(214,636,o),
(202,648,o),
(187,648,cs),
(171,648,o),
(160,635,o),
(160,618,cs),
(160,599,o),
(173,586,o),
(192,586,cs),
(212,586,o),
(226,600,o),
(226,630,cs),
(226,675,o),
(196,708,o),
(138,708,cs),
(51,708,o),
(38,633,o),
(38,597,cs),
(38,471,o),
(198,375,o),
(198,271,cs),
(198,235,o),
(179,182,o),
(113,182,c),
(113,168,l)
);
},
{
closed = 1;
nodes = (
(213,-108,o),
(238,-42,o),
(238,6,cs),
(238,128,o),
(78,225,o),
(78,329,cs),
(78,365,o),
(97,418,o),
(163,418,c),
(163,432,l),
(54,432,o),
(30,350,o),
(30,303,cs),
(30,186,o),
(182,93,o),
(182,-14,cs),
(182,-57,o),
(158,-92,o),
(119,-92,cs),
(78,-92,o),
(50,-52,o),
(54,-8,c),
(50,-8,l),
(50,-24,o),
(62,-36,o),
(77,-36,cs),
(93,-36,o),
(104,-23,o),
(104,-6,cs),
(104,13,o),
(91,26,o),
(72,26,cs),
(52,26,o),
(38,12,o),
(38,-18,cs),
(38,-63,o),
(68,-108,o),
(133,-108,cs)
);
}
);
width = 276;
}
);
metricLeft = S;
metricRight = S;
unicode = 167;
}
{
glyphname = copyright;
layers = (
{
layerId = "B8B720EE-CA8B-4072-B286-8C23F1A5F625";
shapes = (
{
closed = 1;
nodes = (
(400,-8,o),
(400,162,o),
(400,202,cs),
(400,498,ls),
(400,538,o),
(400,708,o),
(220,708,cs),
(40,708,o),
(40,538,o),
(40,498,cs),
(40,202,ls),
(40,162,o),
(40,-8,o),
(220,-8,cs)
);
},
{
closed = 1;
nodes = (
(64,16,o),
(64,158,o),
(64,202,cs),
(64,498,ls),
(64,542,o),
(64,684,o),
(220,684,cs),
(376,684,o),
(376,542,o),
(376,498,cs),
(376,202,ls),
(376,158,o),
(376,16,o),
(220,16,cs)
);
},
{
pos = (95,100);
ref = c;
}
);
width = 440;
}
);
metricLeft = O;
metricRight = O;
unicode = 169;
}
{
glyphname = logicalnot;
layers = (
{
layerId = "B8B720EE-CA8B-4072-B286-8C23F1A5F625";
shapes = (
{
closed = 1;
nodes = (
(380,374,l),
(380,230,l),
(420,230,l),
(420,410,l),
(60,410,l),
(60,374,l)
);
}
);
width = 480;
}
);
metricLeft = minus;
metricRight = minus;
unicode = 172;
}
{
glyphname = registered;
layers = (
{
hints = (
{
name = _corner.serif;
options = 1;
origin = (1,0);
scale = (-0.8,1);
type = Corner;
},
{
name = _corner.serif;
options = 1;
origin = (1,2);
scale = (-0.8,1);
type = Corner;
},
{
name = _corner.serif;
options = 1;
origin = (1,3);
scale = (0.8,1);
type = Corner;
}
);
layerId = "B8B720EE-CA8B-4072-B286-8C23F1A5F625";
shapes = (
{
attr = {
strokePos = "1";
strokeWidth = 24;
};
closed = 1;
nodes = (
(262,412,o),
(328,478,o),
(328,560,cs),
(328,642,o),
(262,708,o),
(180,708,cs),
(98,708,o),
(32,642,o),
(32,560,cs),
(32,478,o),
(98,412,o),
(180,412,cs)
);
},
{
closed = 1;
nodes = (
(166,464,l),
(166,656,l),
(126,656,l),
(126,464,l)
);
},
{
closed = 1;
nodes = (
(182,564,ls),
(242,564,o),
(242,586,o),
(242,608,cs),
(242,632,o),
(242,656,o),
(182,656,cs),
(154,656,l),
(154,644,l),
(170,644,ls),
(202,644,o),
(202,628,o),
(202,608,cs),
(202,588,o),
(202,572,o),
(170,572,cs),
(154,572,l),
(154,564,l)
);
},
{
closed = 1;
nodes = (
(266,464,l),
(266,480,l),
(242,480,o),
(242,492,o),
(242,518,cs),
(242,546,o),
(242,568,o),
(182,568,cs),
(154,568,l),
(154,560,l),
(170,560,ls),
(202,560,o),
(202,546,o),
(202,514,cs),
(202,486,o),
(202,464,o),
(254,464,cs)
);
}
);
width = 360;
}
);
metricRight = "=|";
unicode = 174;
}
{
glyphname = degree;
layers = (
{
layerId = "B8B720EE-CA8B-4072-B286-8C23F1A5F625";
shapes = (
{
closed = 1;
nodes = (
(172,528,o),
(212,568,o),
(212,618,cs),
(212,668,o),
(172,708,o),
(122,708,cs),
(72,708,o),
(32,668,o),
(32,618,cs),
(32,568,o),
(72,528,o),
(122,528,cs)
);
},
{
closed = 1;
nodes = (
(86,552,o),
(56,582,o),
(56,618,cs),
(56,654,o),
(86,684,o),
(122,684,cs),
(158,684,o),
(188,654,o),
(188,618,cs),
(188,582,o),
(158,552,o),
(122,552,cs)
);
}
);
width = 244;
}
);
metricRight = "=|";
unicode = 176;
}
{
glyphname = plusminus;
layers = (
{
layerId = "B8B720EE-CA8B-4072-B286-8C23F1A5F625";
shapes = (
{
closed = 1;
nodes = (
(260,222,l),
(260,550,l),
(220,550,l),
(220,222,l)
);
},
{
pos = (0,-182);
ref = minus;
},
{
pos = (0,36);
ref = minus;
}
);
width = 480;
}
);
metricLeft = plus;
metricRight = plus;
unicode = 177;
}
{
glyphname = twosuperior;
layers = (
{
hints = (
{
name = _corner.vertserif;
options = 1;
origin = (0,1);
scale = (-0.8,1);
type = Corner;
}
);
layerId = "B8B720EE-CA8B-4072-B286-8C23F1A5F625";
shapes = (
{
closed = 1;
nodes = (
(174,440,l),
(174,456,l),
(68,456,l),
(68,519,o),
(174,558,o),
(174,639,cs),
(174,663,o),
(165,708,o),
(106,708,cs),
(26,708,o),
(26,627,o),
(26,618,c),
(74,618,l),
(74,633,o),
(76,692,o),
(105,692,cs),
(126,692,o),
(130,661,o),
(130,646,cs),
(130,567,o),
(26,558,o),
(26,440,c)
);
}
);
width = 200;
}
);
metricWidth = zerosuperior;
unicode = 178;
}
{
glyphname = threesuperior;
layers = (
{
background = {
shapes = (
{
closed = 1;
nodes = (
(170,470,o),
(176,532,o),
(176,552,cs),
(176,581,o),
(163,626,o),
(80,626,c),
(80,616,l),
(123,616,o),
(130,590,o),
(130,551,cs),
(130,526,o),
(127,486,o),
(100,486,cs),
(72,486,o),
(70,529,o),
(70,542,cs),
(70,558,l),
(24,558,l),
(24,542,ls),
(24,529,o),
(26,470,o),
(100,470,cs)
);
},
{
closed = 1;
nodes = (
(100,622,ls),
(164,622,o),
(170,661,o),
(170,682,cs),
(170,694,o),
(170,748,o),
(100,748,cs),
(30,748,o),
(30,694,o),
(30,682,c),
(76,682,l),
(76,700,o),
(76,732,o),
(100,732,cs),
(124,732,o),
(124,700,o),
(124,682,cs),
(124,642,o),
(115,632,o),
(80,632,c),
(80,622,l)
);
}
);
};
layerId = "B8B720EE-CA8B-4072-B286-8C23F1A5F625";
shapes = (
{
closed = 1;
nodes = (
(170,432,o),
(176,494,o),
(176,514,cs),
(176,543,o),
(163,586,o),
(80,586,c),
(80,576,l),
(123,576,o),
(130,550,o),
(130,515,cs),
(130,486,o),
(125,448,o),
(99,448,cs),
(70,448,o),
(70,496,o),
(70,504,cs),
(70,520,l),
(24,520,l),
(24,504,ls),
(24,494,o),
(24,432,o),
(97,432,cs)
);
},
{
closed = 1;
nodes = (
(100,582,ls),
(164,582,o),
(172,624,o),
(172,645,cs),
(172,660,o),
(168,708,o),
(99,708,cs),
(27,708,o),
(24,654,o),
(24,642,c),
(70,642,l),
(70,660,o),
(73,692,o),
(99,692,cs),
(123,692,o),
(126,663,o),
(126,643,cs),
(126,605,o),
(115,592,o),
(80,592,c),
(80,582,l)
);
}
);
width = 200;
}
);
metricRight = "=|";
metricWidth = zerosuperior;
unicode = 179;
}
{
glyphname = micro;
layers = (
{
background = {
shapes = (
{
ref = u;
}
);
};
hints = (
{
name = _corner.serif;
options = 1;
origin = (0,0);
scale = (1,-1);
type = Corner;
},
{
name = _corner.serif;
options = 1;
origin = (0,2);
scale = (1,-1);
type = Corner;
},
{
name = _corner.serif;
options = 1;
origin = (0,2);
scale = (-1,1);
type = Corner;
},
{
name = _corner.serif;
options = 1;
origin = (2,2);
scale = (1,-1);
type = Corner;
}
);
layerId = "B8B720EE-CA8B-4072-B286-8C23F1A5F625";
shapes = (
{
closed = 1;
nodes = (
(240,0,l),
(240,500,l),
(180,500,l),
(180,0,l)
);
},
{
closed = 1;
nodes = (
(60,110,l),
(60,75,o),
(70,-8,o),
(124,-8,cs),
(163,-8,o),
(187,34,o),
(200,84,c),
(200,101,l),
(183,44,o),
(162,23,o),
(136,23,cs),
(100,23,o),
(100,63,o),
(100,110,c)
);
},
{
closed = 1;
nodes = (
(100,-100,l),
(100,500,l),
(40,500,l),
(40,-100,l)
);
}
);
width = 280;
}
);
metricLeft = u;
metricRight = u;
unicode = 181;
}
{
glyphname = paragraph;
layers = (
{
hints = (
{
name = _corner.serif;
origin = (0,5);
type = Corner;
},
{
name = _corner.serif;
origin = (0,13);
type = Corner;
},
{
name = _corner.serif;
options = 1;
origin = (0,4);
scale = (1,-1);
type = Corner;
}
);
layerId = "B8B720EE-CA8B-4072-B286-8C23F1A5F625";
shapes = (
{
closed = 1;
nodes = (
(228,-100,l),
(228,684,l),
(276,684,l),
(276,-100,l),
(324,-100,l),
(324,700,l),
(180,700,ls),
(92,700,o),
(20,655,o),
(20,547,cs),
(20,439,o),
(92,394,o),
(180,394,c),
(180,-100,l)
);
}
);
width = 364;
}
);
metricLeft = "=|P";
metricRight = n;
unicode = 182;
}
{
glyphname = onesuperior;
layers = (
{
background = {
hints = (
{
name = _corner.serif;
origin = (0,0);
scale = (1.2,-1);
type = Corner;
},
{
name = _corner.serif;
origin = (0,5);
scale = (1.2,1);
type = Corner;
}
);
shapes = (
{
closed = 1;
nodes = (
(126,520,l),
(126,750,l),
(-14,712,l),
(-14,695,l),
(64,716,l),
(64,520,l)
);
}
);
};
hints = (
{
name = _corner.serif;
origin = (0,0);
scale = (1.5,-1);
type = Corner;
},
{
name = _corner.serif;
origin = (0,5);
scale = (1.5,1);
type = Corner;
}
);
layerId = "B8B720EE-CA8B-4072-B286-8C23F1A5F625";
shapes = (
{
closed = 1;
nodes = (
(123,440,l),
(123,710,l),
(24,683,l),
(24,666,l),
(77,681,l),
(77,440,l)
);
}
);
width = 200;
}
);
metricWidth = zerosuperior;
unicode = 185;
}
{
glyphname = AE;
layers = (
{
hints = (
{
name = _corner.serif;
origin = (0,3);
type = Corner;
},
{
name = _corner.serif;
options = 1;
origin = (0,0);
scale = (-1,1);
type = Corner;
}
);
layerId = "B8B720EE-CA8B-4072-B286-8C23F1A5F625";
shapes = (
{
closed = 1;
nodes = (
(53,0,l),
(242,700,l),
(218,700,l),
(29,0,l)
);
},
{
closed = 1;
nodes = (
(230,284,l),
(230,300,l),
(122,300,l),
(122,284,l)
);
},
{
pos = (178,0);
ref = E;
}
);
width = 426;
}
);
metricRight = E;
unicode = 198;
}
{
glyphname = Eth;
layers = (
{
layerId = "B8B720EE-CA8B-4072-B286-8C23F1A5F625";
shapes = (
{
closed = 1;
nodes = (
(142,390,l),
(142,406,l),
(0,406,l),
(0,390,l)
);
},
{
ref = D;
}
);
width = 288;
}
);
metricLeft = "=D-10";
metricRight = D;
unicode = 208;
}
{
glyphname = multiply;
layers = (
{
layerId = "B8B720EE-CA8B-4072-B286-8C23F1A5F625";
shapes = (
{
closed = 1;
nodes = (
(409,208,l),
(98,519,l),
(71,492,l),
(382,181,l)
);
},
{
closed = 1;
nodes = (
(409,492,l),
(382,519,l),
(71,208,l),
(98,181,l)
);
}
);
width = 480;
}
);
metricRight = "=|";
unicode = 215;
}
{
glyphname = Oslash;
layers = (
{
layerId = "B8B720EE-CA8B-4072-B286-8C23F1A5F625";
shapes = (
{
closed = 1;
nodes = (
(64,-75,l),
(244,770,l),
(224,775,l),
(44,-70,l)
);
},
{
ref = O;
}
);
width = 288;
}
);
unicode = 216;
}
{
glyphname = Thorn;
layers = (
{
hints = (
{
name = _corner.serif;
options = 1;
origin = (0,0);
scale = (-1,1);
type = Corner;
},
{
name = _corner.serif;
options = 1;
origin = (0,2);
scale = (-1,1);
type = Corner;
},
{
name = _corner.serif;
origin = (0,3);
type = Corner;
}
);
layerId = "B8B720EE-CA8B-4072-B286-8C23F1A5F625";
shapes = (
{
closed = 1;
nodes = (
(102,0,l),
(102,700,l),
(40,700,l),
(40,0,l)
);
},
{
closed = 1;
nodes = (
(186,370,l),
(248,370,l),
(248,444,l),
(186,444,l)
);
},
{
pos = (80,424);
ref = _part.uppercase1;
},
{
pos = (80,390);
ref = _part.uppercase1;
scale = (1,-1);
}
);
width = 268;
}
);
metricLeft = H;
metricRight = P;
unicode = 222;
}
{
glyphname = germandbls;
layers = (
{
hints = (
{
name = _corner.serif;
origin = (0,15);
scale = (-1,-1);
type = Corner;
}
);
layerId = "B8B720EE-CA8B-4072-B286-8C23F1A5F625";
shapes = (
{
closed = 1;
nodes = (
(300,-8,o),
(300,87,o),
(300,120,cs),
(300,249,o),
(166,356,o),
(166,426,cs),
(166,479,o),
(240,513,o),
(240,600,cs),
(240,633,o),
(240,728,o),
(140,728,cs),
(40,728,o),
(40,633,o),
(40,600,cs),
(40,0,l),
(100,0,l),
(100,610,ls),
(100,649,o),
(100,712,o),
(140,712,cs),
(180,712,o),
(180,649,o),
(180,610,cs),
(180,518,o),
(132,490,o),
(132,420,cs),
(132,319,o),
(240,237,o),
(240,110,cs),
(240,71,o),
(240,8,o),
(216,8,cs),
(192,8,o),
(192,71,o),
(192,110,cs),
(192,160,l),
(132,160,l),
(132,120,ls),
(132,87,o),
(132,-8,o),
(216,-8,cs)
);
}
);
width = 325;
}
);
metricLeft = l;
metricRight = s;
unicode = 223;
}
{
glyphname = eth;
layers = (
{
layerId = "B8B720EE-CA8B-4072-B286-8C23F1A5F625";
shapes = (
{
closed = 1;
nodes = (
(85,140,l),
(85,320,l),
(25,320,l),
(25,140,l)
);
},
{
closed = 1;
nodes = (
(225,140,l),
(225,320,l),
(165,320,l),
(165,140,l)
);
},
{
pos = (25,160);
ref = _part.lowercase2;
scale = (1,-1);
},
{
pos = (25,300);
ref = _part.lowercase2;
},
{
closed = 1;
nodes = (
(225,300,l),
(225,340,ls),
(225,544,o),
(225,641,o),
(65,728,c),
(65,711,l),
(165,638,o),
(165,566,o),
(165,350,cs),
(165,300,l)
);
},
{
closed = 1;
nodes = (
(75,550,l),
(245,650,l),
(245,667,l),
(75,567,l)
);
}
);
width = 245;
}
);
metricLeft = o;
metricRight = "=0-20";
unicode = 240;
}
{
glyphname = divide;
layers = (
{
layerId = "B8B720EE-CA8B-4072-B286-8C23F1A5F625";
shapes = (
{
closed = 1;
nodes = (
(263,458,o),
(282,477,o),
(282,500,cs),
(282,523,o),
(263,542,o),
(240,542,cs),
(217,542,o),
(198,523,o),
(198,500,cs),
(198,477,o),
(217,458,o),
(240,458,cs)
);
},
{
closed = 1;
nodes = (
(263,158,o),
(282,177,o),
(282,200,cs),
(282,223,o),
(263,242,o),
(240,242,cs),
(217,242,o),
(198,223,o),
(198,200,cs),
(198,177,o),
(217,158,o),
(240,158,cs)
);
},
{
ref = minus;
}
);
width = 480;
}
);
metricLeft = minus;
metricRight = minus;
unicode = 247;
}
{
glyphname = oslash;
layers = (
{
layerId = "B8B720EE-CA8B-4072-B286-8C23F1A5F625";
shapes = (
{
ref = o;
},
{
closed = 1;
nodes = (
(66,-76,l),
(204,572,l),
(184,576,l),
(46,-72,l)
);
}
);
width = 250;
}
);
unicode = 248;
}
{
glyphname = thorn;
layers = (
{
hints = (
{
name = _corner.serif;
options = 1;
origin = (0,0);
scale = (1,-1);
type = Corner;
},
{
name = _corner.serif;
options = 1;
origin = (0,2);
scale = (1,-1);
type = Corner;
},
{
name = _corner.serif;
origin = (0,3);
type = Corner;
}
);
layerId = "B8B720EE-CA8B-4072-B286-8C23F1A5F625";
shapes = (
{
closed = 1;
nodes = (
(100,-240,l),
(100,720,l),
(40,720,l),
(40,-240,l)
);
},
{
pos = (240,0);
ref = _part.mid;
scale = (-1,1);
}
);
width = 265;
}
);
metricLeft = h;
metricRight = o;
unicode = 254;
}
{
glyphname = dcroat;
layers = (
{
layerId = "B8B720EE-CA8B-4072-B286-8C23F1A5F625";
shapes = (
{
closed = 1;
nodes = (
(255,604,l),
(255,620,l),
(95,620,l),
(95,604,l)
);
},
{
ref = d;
}
);
width = 265;
}
);
metricLeft = d;
metricRight = d;
unicode = 273;
}
{
glyphname = Hbar;
layers = (
{
layerId = "B8B720EE-CA8B-4072-B286-8C23F1A5F625";
shapes = (
{
ref = H;
},
{
closed = 1;
nodes = (
(278,544,l),
(278,560,l),
(10,560,l),
(10,544,l)
);
}
);
width = 288;
}
);
metricLeft = H;
metricRight = H;
unicode = 294;
}
{
glyphname = hbar;
layers = (
{
layerId = "B8B720EE-CA8B-4072-B286-8C23F1A5F625";
shapes = (
{
ref = h;
},
{
closed = 1;
nodes = (
(170,604,l),
(170,620,l),
(10,620,l),
(10,604,l)
);
}
);
width = 280;
}
);
metricLeft = h;
metricRight = h;
unicode = 295;
}
{
glyphname = idotless;
kernLeft = n;
layers = (
{
anchors = (
{
name = bottom;
pos = (70,0);
},
{
name = ogonek;
pos = (70,0);
},
{
name = top;
pos = (70,500);
}
);
hints = (
{
name = _corner.serif;
options = 1;
origin = (0,0);
scale = (1,-1);
type = Corner;
},
{
name = _corner.serif;
options = 1;
origin = (0,2);
scale = (1,-1);
type = Corner;
},
{
name = _corner.serif;
origin = (0,3);
scale = (-1,-1);
type = Corner;
}
);
layerId = "B8B720EE-CA8B-4072-B286-8C23F1A5F625";
shapes = (
{
closed = 1;
nodes = (
(100,0,l),
(100,500,l),
(40,500,l),
(40,0,l)
);
}
);
width = 140;
}
);
metricLeft = i;
metricRight = i;
unicode = 305;
}
{
glyphname = Lslash;
layers = (
{
layerId = "B8B720EE-CA8B-4072-B286-8C23F1A5F625";
shapes = (
{
ref = L;
},
{
closed = 1;
nodes = (
(180,436,l),
(180,453,l),
(0,377,l),
(0,360,l)
);
}
);
width = 268;
}
);
metricLeft = "=L-10";
metricRight = L;
unicode = 321;
}
{
glyphname = lslash;
layers = (
{
layerId = "B8B720EE-CA8B-4072-B286-8C23F1A5F625";
shapes = (
{
ref = l;
},
{
closed = 1;
nodes = (
(140,420,l),
(140,437,l),
(0,377,l),
(0,360,l)
);
}
);
width = 140;
}
);
metricLeft = "=l-10";
metricRight = "=l-10";
unicode = 322;
}
{
glyphname = OE;
layers = (
{
hints = (
{
name = _corner.vertserif;
origin = (2,1);
type = Corner;
},
{
name = _corner.vertserif;
options = 1;
origin = (2,6);
scale = (-1,1);
type = Corner;
}
);
layerId = "B8B720EE-CA8B-4072-B286-8C23F1A5F625";
shapes = (
{
closed = 1;
nodes = (
(102,140,l),
(102,560,l),
(40,560,l),
(40,140,l)
);
},
{
closed = 1;
nodes = (
(102,540,l),
(102,590,ls),
(102,629,o),
(102,692,o),
(144,692,cs),
(186,692,o),
(186,629,o),
(186,590,cs),
(186,540,l),
(238,540,l),
(238,580,ls),
(238,613,o),
(238,708,o),
(140,708,cs),
(40,708,o),
(40,613,o),
(40,580,cs),
(40,540,l)
);
},
{
closed = 1;
nodes = (
(248,684,l),
(374,684,l),
(374,700,l),
(186,700,l),
(186,0,l),
(374,0,l),
(374,16,l),
(248,16,l)
);
},
{
closed = 1;
nodes = (
(244,380,l),
(348,380,l),
(348,396,l),
(244,396,l)
);
},
{
closed = 1;
nodes = (
(40,120,ls),
(40,87,o),
(40,-8,o),
(140,-8,cs),
(238,-8,o),
(238,87,o),
(238,120,cs),
(238,160,l),
(186,160,l),
(186,110,ls),
(186,71,o),
(186,8,o),
(144,8,cs),
(102,8,o),
(102,71,o),
(102,110,cs),
(102,160,l),
(40,160,l)
);
}
);
width = 394;
}
);
metricLeft = O;
metricRight = E;
unicode = 338;
}
{
glyphname = Schwa;
layers = (
{
background = {
shapes = (
{
angle = 180;
pos = (288,700);
ref = Schwa;
}
);
};
layerId = "B8B720EE-CA8B-4072-B286-8C23F1A5F625";
shapes = (
{
closed = 1;
nodes = (
(248,140,l),
(248,560,l),
(186,560,l),
(186,140,l)
);
},
{
pos = (40,160);
ref = _part.uppercase2;
scale = (1,-1);
},
{
closed = 1;
nodes = (
(102,140,l),
(102,264,l),
(196,264,l),
(196,280,l),
(40,280,l),
(40,140,l)
);
},
{
pos = (40,540);
ref = _part.uppercase2;
},
{
closed = 1;
nodes = (
(102,520,l),
(102,560,l),
(40,560,l),
(40,520,l)
);
}
);
width = 288;
}
);
metricLeft = O;
metricRight = O;
unicode = 399;
}
{
glyphname = florin;
layers = (
{
layerId = "B8B720EE-CA8B-4072-B286-8C23F1A5F625";
shapes = (
{
closed = 1;
nodes = (
(172,-108,o),
(186,-14,o),
(198,68,cs),
(268,564,ls),
(280,649,o),
(297,712,o),
(348,712,cs),
(385,712,o),
(415,679,o),
(415,640,c),
(421,640,l),
(421,654,o),
(414,671,o),
(395,671,cs),
(378,671,o),
(367,659,o),
(367,639,cs),
(367,618,o),
(379,604,o),
(399,604,c),
(417,604,o),
(431,616,o),
(431,643,cs),
(431,682,o),
(402,728,o),
(333,728,cs),
(232,728,o),
(217,631,o),
(205,549,cs),
(135,53,ls),
(123,-32,o),
(114,-90,o),
(69,-90,cs),
(43,-90,o),
(10,-71,o),
(10,-13,c),
(4,-13,l),
(4,-28,o),
(15,-48,o),
(35,-48,cs),
(52,-48,o),
(66,-33,o),
(66,-12,cs),
(66,10,o),
(50,27,o),
(31,27,cs),
(12,27,o),
(-6,10,o),
(-6,-23,cs),
(-6,-64,o),
(20,-108,o),
(82,-108,cs)
);
},
{
closed = 1;
nodes = (
(375,484,l),
(375,500,l),
(115,500,l),
(115,484,l)
);
}
);
width = 365;
}
);
metricLeft = "=integral-20";
metricRight = f;
unicode = 402;
}
{
glyphname = jdotless;
kernLeft = n;
layers = (
{
hints = (
{
name = _corner.serif;
options = 1;
origin = (0,2);
scale = (1,-1);
type = Corner;
}
);
layerId = "B8B720EE-CA8B-4072-B286-8C23F1A5F625";
shapes = (
{
closed = 1;
nodes = (
(110,-100,l),
(110,500,l),
(50,500,l),
(50,-100,l)
);
},
{
closed = 1;
nodes = (
(81,-248,o),
(110,-184,o),
(110,-110,cs),
(110,-80,l),
(50,-80,l),
(50,-120,ls),
(50,-186,o),
(39,-230,o),
(-5,-230,cs),
(-41,-230,o),
(-80,-202,o),
(-80,-144,c),
(-86,-144,l),
(-86,-159,o),
(-75,-179,o),
(-55,-179,cs),
(-38,-179,o),
(-24,-164,o),
(-24,-143,cs),
(-24,-121,o),
(-40,-104,o),
(-59,-104,cs),
(-78,-104,o),
(-96,-121,o),
(-96,-152,cs),
(-96,-195,o),
(-61,-248,o),
(6,-248,cs)
);
}
);
width = 150;
}
);
metricLeft = j;
unicode = 567;
}
{
glyphname = gravecomb;
layers = (
{
anchors = (
{
name = _top;
pos = (171,500);
},
{
name = top;
pos = (171,673);
}
);
layerId = "B8B720EE-CA8B-4072-B286-8C23F1A5F625";
shapes = (
{
closed = 1;
nodes = (
(242,570,l),
(121,676,l),
(100,646,l),
(237,564,l)
);
}
);
width = 342;
},
{
anchors = (
{
name = _top;
pos = (195,500);
}
);
associatedMasterId = "B8B720EE-CA8B-4072-B286-8C23F1A5F625";
layerId = "F350CBC5-7605-4426-A394-813EB5D24610";
name = "20年12月23日 01:53";
shapes = (
{
closed = 1;
nodes = (
(249,566,l),
(135,681,l),
(100,633,l),
(244,560,l)
);
}
);
visible = 1;
width = 349;
}
);
unicode = 768;
}
{
glyphname = circumflexcomb;
layers = (
{
anchors = (
{
name = _top;
pos = (194,500);
}
);
layerId = "B8B720EE-CA8B-4072-B286-8C23F1A5F625";
shapes = (
{
closed = 1;
nodes = (
(206,647,l),
(182,647,l),
(283,587,l),
(288,593,l),
(201,693,l),
(187,693,l),
(100,593,l),
(105,587,l)
);
}
);
width = 388;
}
);
unicode = 770;
}
{
export = 0;
glyphname = tildecomb;
layers = (
{
anchors = (
{
name = _top;
pos = (192,500);
}
);
layerId = "B8B720EE-CA8B-4072-B286-8C23F1A5F625";
shapes = (
{
closed = 1;
nodes = (
(187,577,o),
(174,630,o),
(147,630,cs),
(132,630,o),
(117,623,o),
(105,611,c),
(100,616,l),
(114,644,o),
(136,663,o),
(154,663,cs),
(197,663,o),
(210,610,o),
(237,610,cs),
(252,610,o),
(267,617,o),
(279,629,c),
(284,624,l),
(270,596,o),
(248,577,o),
(230,577,cs)
);
}
);
width = 384;
}
);
unicode = 771;
}
{
glyphname = macroncomb;
layers = (
{
anchors = (
{
name = _top;
pos = (166,500);
},
{
name = top;
pos = (166,630);
}
);
layerId = "B8B720EE-CA8B-4072-B286-8C23F1A5F625";
shapes = (
{
closed = 1;
nodes = (
(232,610,l),
(232,630,l),
(100,630,l),
(100,610,l)
);
}
);
width = 332;
}
);
unicode = 772;
}
{
glyphname = brevecomb;
layers = (
{
anchors = (
{
name = _top;
pos = (186,500);
},
{
name = top;
pos = (186,663);
}
);
layerId = "B8B720EE-CA8B-4072-B286-8C23F1A5F625";
shapes = (
{
closed = 1;
nodes = (
(233,577,o),
(272,616,o),
(272,663,c),
(259,663,l),
(253,628,o),
(223,601,o),
(186,601,cs),
(149,601,o),
(119,628,o),
(113,663,c),
(100,663,l),
(100,616,o),
(139,577,o),
(186,577,cs)
);
}
);
width = 372;
}
);
unicode = 774;
}
{
glyphname = dotaccentcomb;
layers = (
{
layerId = "B8B720EE-CA8B-4072-B286-8C23F1A5F625";
shapes = (
{
closed = 1;
nodes = (
(70,595,o),
(90,615,o),
(90,640,cs),
(90,665,o),
(70,685,o),
(45,685,cs),
(20,685,o),
(0,665,o),
(0,640,cs),
(0,615,o),
(20,595,o),
(45,595,c)
);
}
);
width = 90;
}
);
unicode = 775;
}
{
glyphname = dieresiscomb;
layers = (
{
anchors = (
{
name = _top;
pos = (194,500);
}
);
layerId = "B8B720EE-CA8B-4072-B286-8C23F1A5F625";
shapes = (
{
closed = 1;
nodes = (
(156,584,o),
(172,600,o),
(172,620,cs),
(172,640,o),
(156,656,o),
(136,656,cs),
(116,656,o),
(100,640,o),
(100,620,cs),
(100,600,o),
(116,584,o),
(136,584,cs)
);
},
{
closed = 1;
nodes = (
(272,584,o),
(288,600,o),
(288,620,cs),
(288,640,o),
(272,656,o),
(252,656,cs),
(232,656,o),
(216,640,o),
(216,620,cs),
(216,600,o),
(232,584,o),
(252,584,cs)
);
}
);
width = 388;
}
);
unicode = 776;
}
{
glyphname = ringcomb;
layers = (
{
anchors = (
{
name = _top;
pos = (154,500);
}
);
layerId = "B8B720EE-CA8B-4072-B286-8C23F1A5F625";
shapes = (
{
closed = 1;
nodes = (
(184,566,o),
(208,590,o),
(208,620,cs),
(208,650,o),
(184,674,o),
(154,674,cs),
(124,674,o),
(100,650,o),
(100,620,cs),
(100,590,o),
(124,566,o),
(154,566,cs)
);
},
{
closed = 1;
nodes = (
(137,590,o),
(124,603,o),
(124,620,cs),
(124,637,o),
(137,650,o),
(154,650,cs),
(171,650,o),
(184,637,o),
(184,620,cs),
(184,603,o),
(171,590,o),
(154,590,cs)
);
}
);
width = 308;
}
);
unicode = 778;
}
{
glyphname = hungarumlautcomb;
layers = (
{
anchors = (
{
name = _top;
pos = (147,500);
}
);
layerId = "B8B720EE-CA8B-4072-B286-8C23F1A5F625";
shapes = (
{
closed = 1;
nodes = (
(177,668,l),
(144,683,l),
(100,560,l),
(107,557,l)
);
},
{
closed = 1;
nodes = (
(264,668,l),
(231,683,l),
(187,560,l),
(194,557,l)
);
}
);
width = 364;
}
);
unicode = 779;
}
{
glyphname = commaaccentcomb;
layers = (
{
anchors = (
{
name = _bottom;
pos = (146,0);
},
{
name = bottom;
pos = (131,-193);
}
);
background = {
shapes = (
{
closed = 1;
nodes = (
(168,-164,o),
(177,-141,o),
(177,-126,c),
(167,-126,l),
(167,-199,o),
(136,-213,o),
(99,-228,c),
(99,-246,l),
(160,-231,o),
(187,-192,o),
(187,-139,cs),
(187,-94,o),
(169,-74,o),
(142,-74,cs),
(116,-74,o),
(97,-94,o),
(97,-119,cs),
(97,-144,o),
(116,-164,o),
(141,-164,cs)
);
}
);
};
layerId = "B8B720EE-CA8B-4072-B286-8C23F1A5F625";
shapes = (
{
closed = 1;
nodes = (
(143,-156,o),
(162,-131,o),
(162,-60,c),
(130,-60,l),
(130,-118,o),
(124,-145,o),
(100,-164,c),
(100,-180,l)
);
}
);
width = 262;
}
);
unicode = 806;
}
{
glyphname = cedillacomb;
layers = (
{
anchors = (
{
name = _bottom;
pos = (169,0);
},
{
name = bottom;
pos = (169,-138);
}
);
layerId = "B8B720EE-CA8B-4072-B286-8C23F1A5F625";
shapes = (
{
closed = 1;
nodes = (
(174,-52,o),
(190,-65,o),
(190,-87,cs),
(190,-105,o),
(179,-118,o),
(158,-118,cs),
(141,-118,o),
(127,-107,o),
(106,-86,c),
(100,-91,l),
(122,-119,o),
(143,-136,o),
(177,-136,cs),
(210,-136,o),
(232,-120,o),
(232,-92,cs),
(232,-68,o),
(216,-50,o),
(193,-42,c),
(193,0,l),
(145,0,l),
(145,-48,l)
);
}
);
width = 332;
}
);
unicode = 807;
}
{
glyphname = ogonekcomb;
layers = (
{
anchors = (
{
name = _ogonek;
pos = (117,0);
}
);
layerId = "B8B720EE-CA8B-4072-B286-8C23F1A5F625";
shapes = (
{
closed = 1;
nodes = (
(188,-144,l),
(159,-144,o),
(134,-127,o),
(134,-61,cs),
(134,0,l),
(100,0,l),
(100,-58,ls),
(100,-119,o),
(118,-160,o),
(188,-160,c)
);
}
);
width = 288;
}
);
unicode = 808;
}
{
glyphname = Germandbls;
layers = (
{
hints = (
{
name = _corner.serif;
origin = (1,3);
type = Corner;
}
);
layerId = "B8B720EE-CA8B-4072-B286-8C23F1A5F625";
shapes = (
{
closed = 1;
nodes = (
(306,-8,o),
(306,87,o),
(306,160,cs),
(306,242,o),
(287,388,o),
(130,388,c),
(130,372,l),
(216,372,o),
(244,278,o),
(244,160,cs),
(244,73,o),
(244,8,o),
(220,8,cs),
(196,8,o),
(196,71,o),
(196,110,cs),
(196,180,l),
(134,180,l),
(134,120,ls),
(134,87,o),
(134,-8,o),
(220,-8,cs)
);
},
{
closed = 1;
nodes = (
(102,0,l),
(102,560,l),
(40,560,l),
(40,0,l)
);
},
{
closed = 1;
nodes = (
(144,372,ls),
(248,372,o),
(248,466,o),
(248,536,cs),
(248,560,l),
(186,560,l),
(186,530,ls),
(186,437,o),
(186,388,o),
(130,388,c),
(130,372,l)
);
},
{
pos = (40,540);
ref = _part.uppercase2;
}
);
width = 336;
}
);
metricLeft = L;
metricRight = S;
unicode = 7838;
}
{
glyphname = endash;
layers = (
{
layerId = "B8B720EE-CA8B-4072-B286-8C23F1A5F625";
shapes = (
{
closed = 1;
nodes = (
(20,244,l),
(280,244,l),
(280,280,l),
(20,280,l)
);
}
);
width = 300;
}
);
metricRight = "=|";
unicode = 8211;
}
{
glyphname = emdash;
layers = (
{
layerId = "B8B720EE-CA8B-4072-B286-8C23F1A5F625";
shapes = (
{
closed = 1;
nodes = (
(480,244,l),
(480,280,l),
(20,280,l),
(20,244,l)
);
}
);
width = 500;
}
);
metricLeft = hyphen;
metricRight = hyphen;
unicode = 8212;
}
{
glyphname = quoteright;
layers = (
{
layerId = "B8B720EE-CA8B-4072-B286-8C23F1A5F625";
shapes = (
{
closed = 1;
nodes = (
(103,674,l),
(103,598,o),
(78,581,o),
(45,566,c),
(45,546,l),
(102,561,o),
(126,615,o),
(126,664,cs),
(126,711,o),
(104,728,o),
(81,728,cs),
(55,728,o),
(38,707,o),
(38,684,cs),
(38,661,o),
(55,640,o),
(80,640,cs),
(104,640,o),
(113,660,o),
(113,674,c)
);
}
);
width = 156;
}
);
unicode = 8217;
}
{
glyphname = dagger;
layers = (
{
layerId = "B8B720EE-CA8B-4072-B286-8C23F1A5F625";
shapes = (
{
closed = 1;
nodes = (
(158,0,l),
(182,352,l),
(157,500,l),
(184,700,l),
(120,700,l),
(147,500,l),
(122,352,l),
(146,0,l)
);
},
{
closed = 1;
nodes = (
(152,494,l),
(272,470,l),
(272,530,l),
(152,506,l),
(32,530,l),
(32,470,l)
);
}
);
width = 304;
},
{
associatedMasterId = "B8B720EE-CA8B-4072-B286-8C23F1A5F625";
layerId = "F17227E9-77A1-407B-B668-73704229E872";
name = "Jan 1, 22, 20:51";
shapes = (
{
closed = 1;
nodes = (
(158,0,l),
(169,120,o),
(182,290,o),
(182,342,cs),
(182,395,o),
(168,459,o),
(157,500,c),
(180,652,ls),
(181,659,o),
(182,670,o),
(182,676,cs),
(182,695,o),
(169,708,o),
(152,708,cs),
(135,708,o),
(122,695,o),
(122,676,cs),
(122,670,o),
(123,659,o),
(124,652,cs),
(147,500,l),
(136,459,o),
(122,395,o),
(122,342,cs),
(122,290,o),
(135,120,o),
(146,0,c)
);
},
{
closed = 1;
nodes = (
(152,494,l),
(272,470,l),
(272,530,l),
(152,506,l),
(32,530,l),
(32,470,l)
);
}
);
width = 304;
}
);
metricRight = "=|";
unicode = 8224;
}
{
glyphname = daggerdbl;
layers = (
{
layerId = "B8B720EE-CA8B-4072-B286-8C23F1A5F625";
shapes = (
{
closed = 1;
nodes = (
(184,0,l),
(157,200,l),
(182,350,l),
(157,500,l),
(184,700,l),
(120,700,l),
(147,500,l),
(122,350,l),
(147,200,l),
(120,0,l)
);
},
{
closed = 1;
nodes = (
(152,194,l),
(272,170,l),
(272,230,l),
(152,206,l),
(32,230,l),
(32,170,l)
);
},
{
closed = 1;
nodes = (
(152,494,l),
(272,470,l),
(272,530,l),
(152,506,l),
(32,530,l),
(32,470,l)
);
}
);
width = 304;
},
{
associatedMasterId = "B8B720EE-CA8B-4072-B286-8C23F1A5F625";
layerId = "9CA2BAD3-7FEB-471C-B040-693D1618398A";
name = "Jan 1, 22, 21:10";
shapes = (
{
closed = 1;
nodes = (
(169,-8,o),
(182,5,o),
(182,24,cs),
(182,30,o),
(181,41,o),
(180,48,cs),
(157,200,l),
(167,241,o),
(179,294,o),
(179,350,cs),
(179,406,o),
(167,459,o),
(157,500,c),
(180,652,ls),
(181,659,o),
(182,670,o),
(182,676,cs),
(182,695,o),
(169,708,o),
(152,708,cs),
(135,708,o),
(122,695,o),
(122,676,cs),
(122,670,o),
(123,659,o),
(124,652,cs),
(147,500,l),
(137,459,o),
(125,406,o),
(125,350,cs),
(125,294,o),
(137,241,o),
(147,200,c),
(124,48,ls),
(123,41,o),
(122,30,o),
(122,24,cs),
(122,5,o),
(135,-8,o),
(152,-8,cs)
);
},
{
closed = 1;
nodes = (
(152,194,l),
(272,170,l),
(272,230,l),
(152,206,l),
(32,230,l),
(32,170,l)
);
},
{
closed = 1;
nodes = (
(152,494,l),
(272,470,l),
(272,530,l),
(152,506,l),
(32,530,l),
(32,470,l)
);
}
);
width = 304;
}
);
metricLeft = dagger;
metricRight = dagger;
unicode = 8225;
}
{
glyphname = bullet;
layers = (
{
layerId = "B8B720EE-CA8B-4072-B286-8C23F1A5F625";
shapes = (
{
closed = 1;
nodes = (
(142,190,o),
(174,222,o),
(174,262,cs),
(174,302,o),
(142,334,o),
(102,334,cs),
(62,334,o),
(30,302,o),
(30,262,cs),
(30,222,o),
(62,190,o),
(102,190,cs)
);
}
);
width = 204;
}
);
metricLeft = periodcentered;
metricRight = periodcentered;
unicode = 8226;
}
{
glyphname = perthousand;
layers = (
{
layerId = "B8B720EE-CA8B-4072-B286-8C23F1A5F625";
shapes = (
{
ref = percent;
},
{
closed = 1;
nodes = (
(628,-8,o),
(628,87,o),
(628,120,cs),
(628,180,ls),
(628,213,o),
(628,308,o),
(538,308,cs),
(448,308,o),
(448,213,o),
(448,180,cs),
(448,120,ls),
(448,87,o),
(448,-8,o),
(538,-8,cs)
);
},
{
closed = 1;
nodes = (
(508,8,o),
(508,69,o),
(508,110,cs),
(508,190,ls),
(508,231,o),
(508,292,o),
(538,292,cs),
(568,292,o),
(568,231,o),
(568,190,cs),
(568,110,ls),
(568,69,o),
(568,8,o),
(538,8,cs)
);
}
);
width = 668;
}
);
metricLeft = percent;
metricRight = percent;
unicode = 8240;
}
{
glyphname = guilsinglleft;
layers = (
{
layerId = "B8B720EE-CA8B-4072-B286-8C23F1A5F625";
shapes = (
{
closed = 1;
nodes = (
(174,81,l),
(82,262,l),
(174,443,l),
(156,454,l),
(24,262,l),
(156,70,l)
);
}
);
width = 194;
}
);
unicode = 8249;
}
{
glyphname = fraction;
layers = (
{
layerId = "B8B720EE-CA8B-4072-B286-8C23F1A5F625";
shapes = (
{
closed = 1;
nodes = (
(-140,0,l),
(180,700,l),
(140,700,l),
(-180,0,l)
);
}
);
width = 0;
}
);
metricRight = "=|";
unicode = 8260;
}
{
glyphname = zerosuperior;
layers = (
{
layerId = "B8B720EE-CA8B-4072-B286-8C23F1A5F625";
shapes = (
{
closed = 1;
nodes = (
(176,432,o),
(176,499,o),
(176,522,cs),
(176,618,ls),
(176,641,o),
(176,708,o),
(100,708,cs),
(24,708,o),
(24,641,o),
(24,618,cs),
(24,522,ls),
(24,499,o),
(24,432,o),
(100,432,cs)
);
},
{
closed = 1;
nodes = (
(70,448,o),
(70,493,o),
(70,522,cs),
(70,618,ls),
(70,647,o),
(70,692,o),
(100,692,cs),
(130,692,o),
(130,647,o),
(130,618,cs),
(130,522,ls),
(130,493,o),
(130,448,o),
(100,448,cs)
);
},
{
closed = 1;
nodes = (
(55,485,l),
(165,655,l),
(145,655,l),
(35,485,l)
);
}
);
width = 200;
}
);
metricRight = "=|";
unicode = 8304;
}
{
glyphname = foursuperior;
layers = (
{
hints = (
{
name = _corner.serif;
options = 1;
origin = (0,6);
scale = (0.8,-1);
type = Corner;
},
{
name = _corner.serif;
origin = (0,5);
scale = (0.8,1);
type = Corner;
}
);
layerId = "B8B720EE-CA8B-4072-B286-8C23F1A5F625";
shapes = (
{
closed = 1;
nodes = (
(180,504,l),
(180,520,l),
(39,520,l),
(109,629,l),
(98,629,l),
(98,440,l),
(144,440,l),
(144,700,l),
(136,700,l),
(10,504,l)
);
}
);
width = 200;
}
);
metricWidth = zerosuperior;
unicode = 8308;
}
{
glyphname = fivesuperior;
layers = (
{
background = {
shapes = (
{
closed = 1;
nodes = (
(170,470,o),
(176,532,o),
(176,552,cs),
(176,581,o),
(163,626,o),
(80,626,c),
(80,616,l),
(123,616,o),
(130,588,o),
(130,553,cs),
(130,524,o),
(125,486,o),
(99,486,cs),
(70,486,o),
(70,534,o),
(70,542,cs),
(70,558,l),
(24,558,l),
(24,542,ls),
(24,532,o),
(24,470,o),
(97,470,cs)
);
},
{
closed = 1;
nodes = (
(100,622,ls),
(164,622,o),
(172,664,o),
(172,685,cs),
(172,700,o),
(168,748,o),
(99,748,cs),
(27,748,o),
(24,694,o),
(24,682,c),
(70,682,l),
(70,700,o),
(73,732,o),
(99,732,cs),
(123,732,o),
(126,703,o),
(126,683,cs),
(126,645,o),
(115,632,o),
(80,632,c),
(80,622,l)
);
}
);
};
layerId = "B8B720EE-CA8B-4072-B286-8C23F1A5F625";
shapes = (
{
closed = 1;
nodes = (
(170,432,o),
(176,499,o),
(176,524,cs),
(176,558,o),
(165,616,o),
(112,616,cs),
(88,616,o),
(67,604,o),
(53,576,c),
(68,576,l),
(77,590,o),
(90,598,o),
(101,598,cs),
(128,598,o),
(130,550,o),
(130,524,cs),
(130,487,o),
(126,448,o),
(99,448,cs),
(70,448,o),
(70,496,o),
(70,504,cs),
(70,520,l),
(24,520,l),
(24,504,ls),
(24,494,o),
(24,432,o),
(96,432,cs)
);
},
{
closed = 1;
nodes = (
(64,576,l),
(70,586,l),
(70,684,l),
(172,684,l),
(172,700,l),
(24,700,l),
(24,576,l)
);
}
);
width = 200;
}
);
metricRight = "=|";
metricWidth = zerosuperior;
unicode = 8309;
}
{
glyphname = sixsuperior;
layers = (
{
layerId = "B8B720EE-CA8B-4072-B286-8C23F1A5F625";
shapes = (
{
closed = 1;
nodes = (
(176,432,o),
(176,499,o),
(176,522,cs),
(176,555,o),
(170,601,o),
(125,601,cs),
(98,601,o),
(71,584,o),
(60,562,c),
(60,545,l),
(77,569,o),
(91,577,o),
(105,577,cs),
(128,577,o),
(130,556,o),
(130,522,cs),
(130,493,o),
(130,448,o),
(100,448,cs),
(70,448,o),
(70,493,o),
(70,522,cs),
(70,618,ls),
(70,647,o),
(70,692,o),
(98,692,cs),
(124,692,o),
(124,649,o),
(124,636,c),
(170,636,l),
(170,645,o),
(170,708,o),
(98,708,cs),
(24,708,o),
(24,641,o),
(24,618,cs),
(24,522,ls),
(24,499,o),
(24,432,o),
(101,432,cs)
);
}
);
width = 200;
}
);
metricRight = "=|";
metricWidth = zerosuperior;
unicode = 8310;
}
{
glyphname = sevensuperior;
layers = (
{
hints = (
{
name = _corner.vertserif;
options = 1;
origin = (0,3);
scale = (-0.8,1);
type = Corner;
}
);
layerId = "B8B720EE-CA8B-4072-B286-8C23F1A5F625";
shapes = (
{
closed = 1;
nodes = (
(96,440,l),
(184,700,l),
(26,700,l),
(26,684,l),
(133,684,l),
(50,440,l)
);
}
);
width = 200;
}
);
metricWidth = zerosuperior;
unicode = 8311;
}
{
glyphname = eightsuperior;
layers = (
{
background = {
shapes = (
{
closed = 1;
nodes = (
(176,470,o),
(176,537,o),
(176,560,cs),
(176,658,ls),
(176,681,o),
(176,748,o),
(100,748,cs),
(24,748,o),
(24,681,o),
(24,658,cs),
(24,560,ls),
(24,537,o),
(24,470,o),
(100,470,cs)
);
},
{
closed = 1;
nodes = (
(70,486,o),
(70,531,o),
(70,560,cs),
(70,658,ls),
(70,687,o),
(70,732,o),
(100,732,cs),
(130,732,o),
(130,687,o),
(130,658,cs),
(130,560,ls),
(130,531,o),
(130,486,o),
(100,486,cs)
);
}
);
};
layerId = "B8B720EE-CA8B-4072-B286-8C23F1A5F625";
shapes = (
{
closed = 1;
nodes = (
(176,432,o),
(176,489,o),
(176,512,cs),
(176,539,o),
(166,592,o),
(100,592,cs),
(34,592,o),
(24,539,o),
(24,512,cs),
(24,489,o),
(24,432,o),
(100,432,cs)
);
},
{
closed = 1;
nodes = (
(70,448,o),
(70,483,o),
(70,512,cs),
(70,541,o),
(70,576,o),
(100,576,cs),
(130,576,o),
(130,541,o),
(130,512,cs),
(130,483,o),
(130,448,o),
(100,448,cs)
);
},
{
closed = 1;
nodes = (
(164,576,o),
(170,621,o),
(170,642,cs),
(170,654,o),
(170,708,o),
(100,708,cs),
(30,708,o),
(30,654,o),
(30,642,cs),
(30,621,o),
(36,576,o),
(100,576,cs)
);
},
{
closed = 1;
nodes = (
(76,592,o),
(76,624,o),
(76,642,cs),
(76,660,o),
(76,692,o),
(100,692,cs),
(124,692,o),
(124,660,o),
(124,642,cs),
(124,624,o),
(124,592,o),
(100,592,cs)
);
}
);
width = 200;
}
);
metricRight = "=|";
metricWidth = zerosuperior;
unicode = 8312;
}
{
glyphname = ninesuperior;
layers = (
{
background = {
shapes = (
{
closed = 1;
nodes = (
(24,748,o),
(24,681,o),
(24,658,cs),
(24,625,o),
(30,577,o),
(75,577,cs),
(102,577,o),
(129,594,o),
(140,616,c),
(140,633,l),
(123,609,o),
(109,601,o),
(95,601,cs),
(72,601,o),
(70,624,o),
(70,658,cs),
(70,687,o),
(70,732,o),
(100,732,cs),
(130,732,o),
(130,687,o),
(130,658,cs),
(130,560,ls),
(130,531,o),
(130,486,o),
(102,486,cs),
(76,486,o),
(76,529,o),
(76,542,c),
(30,542,l),
(30,533,o),
(30,470,o),
(102,470,cs),
(176,470,o),
(176,537,o),
(176,560,cs),
(176,658,ls),
(176,681,o),
(176,748,o),
(99,748,cs)
);
}
);
};
layerId = "B8B720EE-CA8B-4072-B286-8C23F1A5F625";
shapes = (
{
closed = 1;
nodes = (
(176,432,o),
(176,499,o),
(176,522,cs),
(176,618,ls),
(176,641,o),
(176,708,o),
(99,708,cs),
(30,708,o),
(24,651,o),
(24,624,cs),
(24,581,o),
(40,543,o),
(84,543,cs),
(111,543,o),
(128,558,o),
(140,582,c),
(140,599,l),
(124,575,o),
(112,568,o),
(99,568,cs),
(76,568,o),
(70,590,o),
(70,624,cs),
(70,655,o),
(75,692,o),
(100,692,cs),
(130,692,o),
(130,647,o),
(130,618,cs),
(130,522,ls),
(130,493,o),
(130,448,o),
(102,448,cs),
(76,448,o),
(76,491,o),
(76,504,c),
(30,504,l),
(30,495,o),
(30,432,o),
(102,432,cs)
);
}
);
width = 200;
}
);
metricRight = "=|";
metricWidth = zerosuperior;
unicode = 8313;
}
{
glyphname = euro;
layers = (
{
layerId = "B8B720EE-CA8B-4072-B286-8C23F1A5F625";
shapes = (
{
closed = 1;
nodes = (
(234,398,l),
(234,422,l),
(12,422,l),
(12,398,l)
);
},
{
closed = 1;
nodes = (
(234,298,l),
(234,322,l),
(12,322,l),
(12,298,l)
);
},
{
pos = (32,0);
ref = C;
}
);
width = 300;
}
);
metricRight = C;
unicode = 8364;
}
{
glyphname = trademark;
layers = (
{
hints = (
{
name = _corner.vertserif;
options = 1;
origin = (1,5);
scale = (-0.8,1);
type = Corner;
},
{
name = _corner.serif;
origin = (1,7);
scale = (0.8,1);
type = Corner;
},
{
name = _corner.serif;
options = 1;
origin = (1,0);
scale = (-0.8,1);
type = Corner;
},
{
name = _corner.vertserif;
origin = (1,2);
scale = (0.8,1);
type = Corner;
},
{
name = _corner.serif;
options = 1;
origin = (0,0);
scale = (0.8,-1);
type = Corner;
},
{
name = _corner.serif;
options = 1;
origin = (0,11);
scale = (-0.8,1);
type = Corner;
},
{
name = _corner.serif;
origin = (0,12);
scale = (0.8,1);
type = Corner;
},
{
name = _corner.serif;
origin = (0,5);
scale = (0.8,1);
type = Corner;
},
{
name = _corner.serif;
options = 1;
origin = (0,6);
scale = (-0.8,1);
type = Corner;
},
{
name = _corner.serif;
origin = (0,7);
scale = (0.8,1);
type = Corner;
}
);
layerId = "B8B720EE-CA8B-4072-B286-8C23F1A5F625";
shapes = (
{
closed = 1;
nodes = (
(300,420,l),
(300,592,l),
(360,430,l),
(366,430,l),
(426,592,l),
(426,420,l),
(474,420,l),
(474,700,l),
(449,700,l),
(380,514,l),
(311,700,l),
(276,700,l),
(276,420,l)
);
},
{
closed = 1;
nodes = (
(160,420,l),
(160,684,l),
(240,684,l),
(240,700,l),
(32,700,l),
(32,684,l),
(112,684,l),
(112,420,l)
);
}
);
width = 530;
}
);
metricRight = "=|";
unicode = 8482;
}
{
glyphname = partialdiff;
layers = (
{
layerId = "B8B720EE-CA8B-4072-B286-8C23F1A5F625";
shapes = (
{
closed = 1;
nodes = (
(225,140,l),
(225,340,ls),
(225,544,o),
(215,728,o),
(93,728,cs),
(38,728,o),
(12,691,o),
(-5,662,c),
(9,654,l),
(26,680,o),
(49,711,o),
(85,711,cs),
(165,711,o),
(165,566,o),
(165,350,cs),
(165,140,l)
);
},
{
pos = (25,160);
ref = _part.lowercase2;
scale = (1,-1);
},
{
closed = 1;
nodes = (
(85,140,l),
(85,320,l),
(25,320,l),
(25,140,l)
);
},
{
pos = (25,300);
ref = _part.lowercase2;
}
);
width = 250;
}
);
metricLeft = "=o-30";
metricRight = o;
unicode = 8706;
}
{
glyphname = product;
layers = (
{
hints = (
{
name = _corner.serif;
options = 1;
origin = (0,0);
scale = (-1,1);
type = Corner;
},
{
name = _corner.serif;
origin = (0,1);
type = Corner;
},
{
name = _corner.serif;
options = 1;
origin = (0,2);
scale = (-1,1);
type = Corner;
},
{
name = _corner.serif;
origin = (0,5);
type = Corner;
},
{
name = _corner.serif;
options = 1;
origin = (0,6);
scale = (-1,1);
type = Corner;
},
{
name = _corner.serif;
origin = (0,7);
type = Corner;
}
);
layerId = "B8B720EE-CA8B-4072-B286-8C23F1A5F625";
shapes = (
{
closed = 1;
nodes = (
(40,700,l),
(40,-100,l),
(102,-100,l),
(102,684,l),
(186,684,l),
(186,-100,l),
(248,-100,l),
(248,700,l)
);
}
);
width = 288;
}
);
metricLeft = H;
metricRight = H;
unicode = 8719;
}
{
glyphname = summation;
layers = (
{
hints = (
{
name = _corner.vertserif;
origin = (0,5);
type = Corner;
},
{
name = _corner.vertserif;
options = 1;
origin = (0,1);
scale = (-1,1);
type = Corner;
}
);
layerId = "B8B720EE-CA8B-4072-B286-8C23F1A5F625";
shapes = (
{
closed = 1;
nodes = (
(188,-100,l),
(188,-84,l),
(53,-84,l),
(146,330,l),
(67,684,l),
(188,684,l),
(188,700,l),
(0,700,l),
(90,298,l),
(0,-100,l)
);
}
);
width = 208;
}
);
metricRight = E;
unicode = 8721;
}
{
glyphname = minus;
layers = (
{
layerId = "B8B720EE-CA8B-4072-B286-8C23F1A5F625";
shapes = (
{
closed = 1;
nodes = (
(420,332,l),
(420,368,l),
(60,368,l),
(60,332,l)
);
}
);
width = 480;
}
);
metricRight = "=|";
unicode = 8722;
}
{
glyphname = radical;
layers = (
{
background = {
shapes = (
{
closed = 1;
nodes = (
(148,-20,l),
(304,764,l),
(378,764,l),
(378,780,l),
(287,780,l),
(146,72,l),
(93,303,l),
(-14,276,l),
(-10,261,l),
(34,272,l),
(108,-20,l)
);
}
);
};
guides = (
{
angle = 261.1628;
pos = (257,780);
},
{
angle = 188.8033;
pos = (8,278);
}
);
layerId = "B8B720EE-CA8B-4072-B286-8C23F1A5F625";
shapes = (
{
closed = 1;
nodes = (
(150,-40,l),
(275,764,l),
(348,764,l),
(348,780,l),
(257,780,l),
(149,85,l),
(114,311,l),
(6,294,l),
(8,278,l),
(53,285,l),
(110,-40,l)
);
}
);
width = 308;
}
);
metricLeft = v;
unicode = 8730;
}
{
glyphname = infinity;
layers = (
{
background = {
shapes = (
{
closed = 1;
nodes = (
(449,192,o),
(499,209,o),
(499,262,cs),
(499,313,o),
(452,332,o),
(420,332,cs),
(323,332,o),
(297,160,o),
(140,160,cs),
(63,160,o),
(25,201,o),
(25,262,cs),
(25,327,o),
(67,364,o),
(118,364,cs),
(227,364,o),
(301,192,o),
(414,192,cs)
);
},
{
closed = 1;
nodes = (
(313,160,o),
(239,332,o),
(126,332,cs),
(91,332,o),
(41,315,o),
(41,262,cs),
(41,211,o),
(88,192,o),
(120,192,cs),
(217,192,o),
(243,364,o),
(400,364,cs),
(477,364,o),
(515,323,o),
(515,262,cs),
(515,197,o),
(473,160,o),
(422,160,cs)
);
}
);
};
layerId = "B8B720EE-CA8B-4072-B286-8C23F1A5F625";
shapes = (
{
closed = 1;
nodes = (
(282,260,l),
(324,224,o),
(366,192,o),
(414,192,cs),
(449,192,o),
(499,209,o),
(499,262,cs),
(499,313,o),
(452,332,o),
(420,332,cs),
(323,332,o),
(297,160,o),
(140,160,cs),
(63,160,o),
(25,201,o),
(25,262,cs),
(25,327,o),
(67,364,o),
(118,364,cs),
(172,364,o),
(220,322,o),
(268,276,c),
(258,264,l),
(216,300,o),
(174,332,o),
(126,332,cs),
(91,332,o),
(41,315,o),
(41,262,cs),
(41,211,o),
(88,192,o),
(120,192,cs),
(217,192,o),
(243,364,o),
(400,364,cs),
(477,364,o),
(515,323,o),
(515,262,cs),
(515,197,o),
(473,160,o),
(422,160,cs),
(368,160,o),
(320,202,o),
(272,248,c)
);
}
);
width = 540;
}
);
metricLeft = o;
metricRight = o;
unicode = 8734;
}
{
glyphname = integral;
layers = (
{
layerId = "B8B720EE-CA8B-4072-B286-8C23F1A5F625";
shapes = (
{
closed = 1;
nodes = (
(192,-48,o),
(206,46,o),
(218,128,cs),
(288,624,ls),
(300,709,o),
(317,772,o),
(368,772,cs),
(405,772,o),
(435,739,o),
(435,700,c),
(441,700,l),
(441,714,o),
(434,731,o),
(415,731,cs),
(398,731,o),
(387,719,o),
(387,699,cs),
(387,678,o),
(399,664,o),
(419,664,c),
(437,664,o),
(451,676,o),
(451,703,cs),
(451,742,o),
(422,788,o),
(353,788,cs),
(252,788,o),
(237,691,o),
(225,609,cs),
(155,113,ls),
(143,28,o),
(134,-30,o),
(89,-30,cs),
(63,-30,o),
(30,-11,o),
(30,47,c),
(24,47,l),
(24,32,o),
(35,12,o),
(55,12,cs),
(72,12,o),
(86,27,o),
(86,48,cs),
(86,70,o),
(70,87,o),
(51,87,cs),
(32,87,o),
(14,70,o),
(14,37,cs),
(14,-4,o),
(40,-48,o),
(102,-48,cs)
);
}
);
width = 385;
}
);
metricRight = f;
unicode = 8747;
}
{
glyphname = notequal;
layers = (
{
layerId = "B8B720EE-CA8B-4072-B286-8C23F1A5F625";
shapes = (
{
closed = 1;
nodes = (
(168,150,l),
(348,550,l),
(312,550,l),
(132,150,l)
);
},
{
ref = equal;
}
);
width = 480;
}
);
metricLeft = equal;
metricRight = equal;
unicode = 8800;
}
{
glyphname = lozenge;
layers = (
{
background = {
shapes = (
{
attr = {
strokeWidth = 38;
};
closed = 1;
nodes = (
(52,350,l),
(152,10,l),
(252,350,l),
(152,690,l)
);
}
);
};
layerId = "B8B720EE-CA8B-4072-B286-8C23F1A5F625";
shapes = (
{
closed = 1;
nodes = (
(169,0,l),
(272,350,l),
(169,700,l),
(135,700,l),
(32,350,l),
(135,0,l)
);
},
{
closed = 1;
nodes = (
(72,350,l),
(152,623,l),
(232,350,l),
(152,77,l)
);
}
);
width = 304;
}
);
metricRight = "=|";
unicode = 9674;
}
{
export = 0;
glyphname = _corner.serif;
layers = (
{
anchors = (
{
name = left;
pos = (0,10);
},
{
name = origin;
},
{
name = right;
pos = (10,0);
}
);
layerId = "B8B720EE-CA8B-4072-B286-8C23F1A5F625";
shapes = (
{
closed = 0;
nodes = (
(0,16,l),
(-30,16,l),
(-30,0,l),
(15,0,l)
);
}
);
width = 25;
}
);
}
{
export = 0;
glyphname = _corner.vertserif;
layers = (
{
anchors = (
{
name = left;
pos = (0,7);
},
{
name = origin;
},
{
name = right;
pos = (10,0);
}
);
layerId = "B8B720EE-CA8B-4072-B286-8C23F1A5F625";
shapes = (
{
closed = 0;
nodes = (
(0,24,l),
(-60,24,l),
(-60,0,l),
(15,0,l)
);
}
);
width = 25;
}
);
}
{
glyphname = .notdef;
layers = (
{
layerId = "B8B720EE-CA8B-4072-B286-8C23F1A5F625";
shapes = (
{
closed = 1;
nodes = (
(220,0,l),
(220,700,l),
(20,700,l),
(20,0,l)
);
},
{
closed = 1;
nodes = (
(44,676,l),
(196,676,l),
(196,24,l),
(44,24,l)
);
}
);
width = 240;
}
);
metricRight = "=|";
}
{
export = 0;
glyphname = _part.fliga1;
layers = (
{
hints = (
{
name = _corner.serif;
options = 1;
origin = (0,0);
scale = (-1,1);
type = Corner;
},
{
name = _corner.serif;
origin = (0,3);
type = Corner;
}
);
layerId = "B8B720EE-CA8B-4072-B286-8C23F1A5F625";
shapes = (
{
closed = 1;
nodes = (
(100,0,l),
(100,580,l),
(40,580,l),
(40,0,l)
);
},
{
closed = 1;
nodes = (
(210,484,l),
(210,500,l),
(-10,500,l),
(-10,484,l)
);
},
{
closed = 1;
nodes = (
(100,560,l),
(100,600,ls),
(100,655,o),
(124,712,o),
(188,712,cs),
(236,712,o),
(266,679,o),
(266,640,c),
(272,640,l),
(272,654,o),
(262,685,o),
(237,685,cs),
(212,685,o),
(192,665,o),
(192,640,cs),
(192,615,o),
(212,595,o),
(238,595,cs),
(262,595,o),
(282,613,o),
(282,644,cs),
(282,682,o),
(253,728,o),
(175,728,cs),
(64,728,o),
(40,635,o),
(40,590,cs),
(40,560,l)
);
}
);
width = 262;
}
);
}
{
export = 0;
glyphname = _part.fliga2;
layers = (
{
hints = (
{
name = _corner.serif;
options = 1;
origin = (0,0);
scale = (-1,1);
type = Corner;
},
{
name = _corner.serif;
origin = (0,3);
type = Corner;
}
);
layerId = "B8B720EE-CA8B-4072-B286-8C23F1A5F625";
shapes = (
{
closed = 1;
nodes = (
(100,0,l),
(100,580,l),
(40,580,l),
(40,0,l)
);
},
{
closed = 1;
nodes = (
(210,484,l),
(210,500,l),
(-10,500,l),
(-10,484,l)
);
},
{
closed = 1;
nodes = (
(252,680,l),
(234,706,o),
(207,728,o),
(160,728,cs),
(64,728,o),
(40,635,o),
(40,590,cs),
(40,560,l),
(100,560,l),
(100,600,ls),
(100,655,o),
(124,709,o),
(174,709,cs),
(201,709,o),
(219,694,o),
(238,669,c)
);
}
);
width = 252;
}
);
}
{
export = 0;
glyphname = _part.fligavar1;
layers = (
{
hints = (
{
name = _corner.serif;
options = 1;
origin = (0,0);
scale = (-1,1);
type = Corner;
},
{
name = _corner.serif;
origin = (0,3);
type = Corner;
}
);
layerId = "B8B720EE-CA8B-4072-B286-8C23F1A5F625";
shapes = (
{
closed = 1;
nodes = (
(100,0,l),
(100,580,l),
(40,580,l),
(40,0,l)
);
},
{
closed = 1;
nodes = (
(-10,484,l),
(210,484,l),
(210,500,l),
(-10,500,l)
);
},
{
closed = 1;
nodes = (
(100,610,ls),
(100,659,o),
(104,712,o),
(159,712,cs),
(210,712,o),
(210,665,o),
(210,610,c),
(270,610,l),
(270,649,o),
(270,728,o),
(160,728,cs),
(40,728,o),
(40,633,o),
(40,600,cs),
(40,560,l),
(100,560,l)
);
}
);
width = 250;
}
);
}
{
export = 0;
glyphname = _part.lowercase1;
layers = (
{
layerId = "B8B720EE-CA8B-4072-B286-8C23F1A5F625";
shapes = (
{
closed = 1;
nodes = (
(160,0,l),
(160,40,ls),
(160,85,o),
(155,168,o),
(85,168,cs),
(35,168,o),
(13,126,o),
(0,76,c),
(0,59,l),
(17,116,o),
(38,137,o),
(64,137,cs),
(100,137,o),
(100,97,o),
(100,50,cs),
(100,0,l)
);
}
);
width = 160;
}
);
}
{
export = 0;
glyphname = _part.lowercase2;
layers = (
{
layerId = "B8B720EE-CA8B-4072-B286-8C23F1A5F625";
shapes = (
{
closed = 1;
nodes = (
(60,0,l),
(60,50,ls),
(60,89,o),
(60,152,o),
(100,152,cs),
(140,152,o),
(140,89,o),
(140,50,cs),
(140,0,l),
(200,0,l),
(200,40,ls),
(200,73,o),
(200,168,o),
(100,168,cs),
(0,168,o),
(0,73,o),
(0,40,cs),
(0,0,l)
);
}
);
width = 200;
}
);
}
{
export = 0;
glyphname = _part.mid;
layers = (
{
anchors = (
{
name = height;
pos = (80,500);
}
);
layerId = "B8B720EE-CA8B-4072-B286-8C23F1A5F625";
partSelection = {
height = 2;
};
shapes = (
{
closed = 1;
nodes = (
(60,140,l),
(60,360,l),
(0,360,l),
(0,140,l)
);
},
{
alignment = -1;
pos = (160,340);
ref = _part.lowercase1;
scale = (-1,1);
},
{
alignment = -1;
angle = 180;
pos = (160,160);
ref = _part.lowercase1;
}
);
width = 160;
},
{
anchors = (
{
name = height;
pos = (80,320);
}
);
associatedMasterId = "B8B720EE-CA8B-4072-B286-8C23F1A5F625";
layerId = "98FA0C9B-963D-4E92-AD2B-AAEB357B0E02";
name = short;
partSelection = {
height = 1;
};
shapes = (
{
closed = 1;
nodes = (
(60,130,l),
(60,190,l),
(0,190,l),
(0,130,l)
);
},
{
pos = (160,160);
ref = _part.lowercase1;
scale = (-1,1);
},
{
angle = 180;
pos = (160,160);
ref = _part.lowercase1;
}
);
visible = 1;
width = 160;
}
);
partsSettings = (
{
bottomName = Low;
bottomValue = 60;
name = height;
topName = High;
topValue = 100;
}
);
}
{
export = 0;
glyphname = _part.top;
layers = (
{
hints = (
{
name = _corner.serif;
origin = (0,3);
type = Corner;
},
{
name = _corner.serif;
options = 1;
origin = (0,0);
scale = (-1,1);
type = Corner;
}
);
layerId = "B8B720EE-CA8B-4072-B286-8C23F1A5F625";
shapes = (
{
closed = 1;
nodes = (
(160,0,l),
(160,360,l),
(100,360,l),
(100,0,l)
);
},
{
pos = (0,340);
ref = _part.lowercase1;
}
);
width = 160;
}
);
}
{
export = 0;
glyphname = _part.uppercase1;
layers = (
{
layerId = "B8B720EE-CA8B-4072-B286-8C23F1A5F625";
shapes = (
{
closed = 1;
nodes = (
(168,0,l),
(168,24,ls),
(168,74,o),
(168,168,o),
(64,168,cs),
(0,168,l),
(0,152,l),
(44,152,ls),
(106,152,o),
(106,107,o),
(106,30,cs),
(106,0,l)
);
}
);
width = 168;
}
);
}
{
export = 0;
glyphname = _part.uppercase2;
layers = (
{
layerId = "B8B720EE-CA8B-4072-B286-8C23F1A5F625";
shapes = (
{
closed = 1;
nodes = (
(62,0,l),
(62,50,ls),
(62,89,o),
(62,152,o),
(104,152,cs),
(146,152,o),
(146,89,o),
(146,50,cs),
(146,0,l),
(208,0,l),
(208,40,ls),
(208,73,o),
(208,168,o),
(104,168,cs),
(0,168,o),
(0,73,o),
(0,40,cs),
(0,0,l)
);
}
);
width = 208;
}
);
}
{
glyphname = a.single;
kernLeft = o;
layers = (
{
anchors = (
{
name = bottom;
pos = (133,0);
},
{
name = ogonek;
pos = (195,0);
},
{
name = top;
pos = (133,500);
}
);
hints = (
{
name = _corner.serif;
options = 1;
origin = (0,0);
scale = (1,-1);
type = Corner;
}
);
layerId = "B8B720EE-CA8B-4072-B286-8C23F1A5F625";
shapes = (
{
closed = 1;
nodes = (
(225,0,l),
(225,500,l),
(165,500,l),
(165,0,l)
);
},
{
pos = (25,0);
ref = _part.mid;
}
);
width = 265;
}
);
metricLeft = o;
metricRight = n;
}
{
glyphname = a.var;
kernLeft = o;
layers = (
{
hints = (
{
name = _corner.serif;
options = 1;
origin = (0,0);
scale = (1,-1);
type = Corner;
}
);
layerId = "B8B720EE-CA8B-4072-B286-8C23F1A5F625";
shapes = (
{
closed = 1;
nodes = (
(225,0,l),
(225,360,l),
(165,360,l),
(165,0,l)
);
},
{
closed = 1;
nodes = (
(225,340,l),
(225,380,ls),
(225,413,o),
(225,508,o),
(129,508,cs),
(39,508,o),
(39,423,o),
(39,400,c),
(99,400,l),
(99,439,o),
(99,492,o),
(132,492,cs),
(165,492,o),
(165,439,o),
(165,390,cs),
(165,340,l)
);
},
{
piece = {
height = 60.03975;
};
pos = (25,0);
ref = _part.mid;
}
);
width = 265;
}
);
metricLeft = a;
metricRight = a;
}
{
glyphname = ae.var;
layers = (
{
layerId = "B8B720EE-CA8B-4072-B286-8C23F1A5F625";
shapes = (
{
piece = {
height = 60.03975;
};
pos = (25,0);
ref = _part.mid;
},
{
alignment = -1;
pos = (140,0);
ref = e;
},
{
closed = 1;
nodes = (
(225,340,l),
(225,380,ls),
(225,413,o),
(225,508,o),
(129,508,cs),
(39,508,o),
(39,423,o),
(39,400,c),
(99,400,l),
(99,439,o),
(99,492,o),
(132,492,cs),
(165,492,o),
(165,439,o),
(165,390,cs),
(165,340,l)
);
}
);
width = 390;
}
);
metricLeft = ae;
metricRight = ae;
}
{
glyphname = f.var;
kernRight = f;
layers = (
{
background = {
hints = (
{
name = _corner.serif;
options = 1;
origin = (0,0);
scale = (-1,1);
type = Corner;
},
{
name = _corner.serif;
origin = (0,3);
type = Corner;
}
);
shapes = (
{
closed = 1;
nodes = (
(120,0,l),
(120,580,l),
(60,580,l),
(60,0,l)
);
},
{
closed = 1;
nodes = (
(10,484,l),
(230,484,l),
(230,500,l),
(10,500,l)
);
},
{
closed = 1;
nodes = (
(120,600,ls),
(120,655,o),
(144,712,o),
(193,712,cs),
(230,712,o),
(260,679,o),
(260,640,c),
(266,640,l),
(266,654,o),
(259,671,o),
(240,671,cs),
(223,671,o),
(212,659,o),
(212,639,cs),
(212,618,o),
(224,604,o),
(244,604,c),
(262,604,o),
(276,616,o),
(276,643,cs),
(276,682,o),
(247,728,o),
(179,728,cs),
(84,728,o),
(60,635,o),
(60,590,cs),
(60,560,l),
(120,560,l)
);
}
);
};
hints = (
{
name = _corner.serif;
origin = (0,3);
type = Corner;
},
{
name = _corner.serif;
options = 1;
origin = (0,0);
scale = (-1,1);
type = Corner;
}
);
layerId = "B8B720EE-CA8B-4072-B286-8C23F1A5F625";
shapes = (
{
closed = 1;
nodes = (
(120,0,l),
(120,580,l),
(60,580,l),
(60,0,l)
);
},
{
closed = 1;
nodes = (
(10,484,l),
(230,484,l),
(230,500,l),
(10,500,l)
);
},
{
closed = 1;
nodes = (
(120,610,ls),
(120,659,o),
(120,712,o),
(168,712,cs),
(216,712,o),
(216,659,o),
(216,610,c),
(276,610,l),
(276,649,o),
(276,728,o),
(173,728,cs),
(60,728,o),
(60,633,o),
(60,600,cs),
(60,560,l),
(120,560,l)
);
}
);
width = 210;
}
);
metricLeft = f;
metricRight = f;
}
{
glyphname = f_l;
kernLeft = f;
layers = (
{
hints = (
{
name = _corner.serif;
origin = (0,3);
type = Corner;
},
{
name = _corner.serif;
options = 1;
origin = (0,0);
scale = (-1,1);
type = Corner;
},
{
name = _corner.serif;
options = 1;
origin = (3,0);
scale = (1,-1);
type = Corner;
},
{
name = _corner.serif;
origin = (3,3);
scale = (-1,-1);
type = Corner;
}
);
layerId = "B8B720EE-CA8B-4072-B286-8C23F1A5F625";
shapes = (
{
closed = 1;
nodes = (
(120,0,l),
(120,580,l),
(60,580,l),
(60,0,l)
);
},
{
closed = 1;
nodes = (
(250,484,l),
(250,500,l),
(10,500,l),
(10,484,l)
);
},
{
closed = 1;
nodes = (
(120,560,l),
(120,600,ls),
(120,669,o),
(148,709,o),
(196,709,cs),
(209,709,o),
(216,707,o),
(233,700,c),
(240,717,l),
(221,725,o),
(202,728,o),
(183,728,cs),
(77,728,o),
(60,635,o),
(60,590,cs),
(60,560,l)
);
},
{
closed = 1;
nodes = (
(290,0,l),
(290,720,l),
(230,720,l),
(230,0,l)
);
}
);
width = 330;
}
);
metricLeft = f;
metricRight = l;
}
{
glyphname = f_l.var;
kernLeft = f;
layers = (
{
hints = (
{
name = _corner.serif;
origin = (0,3);
type = Corner;
},
{
name = _corner.serif;
options = 1;
origin = (0,0);
scale = (-1,1);
type = Corner;
},
{
name = _corner.serif;
options = 1;
origin = (3,0);
scale = (1,-1);
type = Corner;
},
{
name = _corner.serif;
origin = (3,3);
scale = (-1,-1);
type = Corner;
}
);
layerId = "B8B720EE-CA8B-4072-B286-8C23F1A5F625";
shapes = (
{
closed = 1;
nodes = (
(120,0,l),
(120,580,l),
(60,580,l),
(60,0,l)
);
},
{
closed = 1;
nodes = (
(10,484,l),
(250,484,l),
(250,500,l),
(10,500,l)
);
},
{
closed = 1;
nodes = (
(120,610,ls),
(120,659,o),
(120,712,o),
(175,712,cs),
(230,712,o),
(230,659,o),
(230,610,c),
(290,610,l),
(290,649,o),
(290,728,o),
(180,728,cs),
(60,728,o),
(60,633,o),
(60,600,cs),
(60,560,l),
(120,560,l)
);
},
{
closed = 1;
nodes = (
(290,0,l),
(290,720,l),
(230,720,l),
(230,0,l)
);
}
);
width = 330;
}
);
metricLeft = f;
metricRight = l;
}
{
glyphname = f_t;
layers = (
{
layerId = "B8B720EE-CA8B-4072-B286-8C23F1A5F625";
shapes = (
{
closed = 1;
nodes = (
(290,140,l),
(290,560,l),
(230,560,l),
(230,140,l)
);
},
{
closed = 1;
nodes = (
(374,-8,o),
(374,49,o),
(374,70,c),
(356,70,l),
(356,34,o),
(341,14,o),
(325,14,cs),
(301,14,o),
(290,58,o),
(290,120,cs),
(290,160,l),
(230,160,l),
(230,130,ls),
(230,87,o),
(235,-8,o),
(313,-8,cs)
);
},
{
closed = 1;
nodes = (
(370,484,l),
(370,500,l),
(180,500,l),
(180,484,l)
);
},
{
pos = (20,0);
ref = _part.fliga1;
}
);
width = 370;
},
{
associatedMasterId = "B8B720EE-CA8B-4072-B286-8C23F1A5F625";
background = {
shapes = (
{
pos = (14,0);
ref = f;
}
);
};
hints = (
{
name = _corner.serif;
options = 1;
origin = (0,0);
scale = (-1,1);
type = Corner;
},
{
name = _corner.serif;
origin = (0,3);
type = Corner;
}
);
layerId = "A1406D12-2482-461B-9166-3F98CD039045";
name = "Jan 1, 21, 22:07";
shapes = (
{
closed = 1;
nodes = (
(120,0,l),
(120,580,l),
(60,580,l),
(60,0,l)
);
},
{
closed = 1;
nodes = (
(370,484,l),
(370,500,l),
(10,500,l),
(10,484,l)
);
},
{
closed = 1;
nodes = (
(120,560,l),
(120,600,ls),
(120,669,o),
(148,709,o),
(196,709,cs),
(209,709,o),
(216,707,o),
(233,700,c),
(240,717,l),
(221,725,o),
(202,728,o),
(183,728,cs),
(77,728,o),
(60,635,o),
(60,590,cs),
(60,560,l)
);
},
{
closed = 1;
nodes = (
(290,140,l),
(290,720,l),
(230,720,l),
(230,140,l)
);
},
{
closed = 1;
nodes = (
(374,-8,o),
(374,49,o),
(374,70,c),
(356,70,l),
(356,34,o),
(341,14,o),
(325,14,cs),
(301,14,o),
(290,58,o),
(290,120,cs),
(290,160,l),
(230,160,l),
(230,130,ls),
(230,87,o),
(235,-8,o),
(313,-8,cs)
);
}
);
width = 380;
}
);
metricLeft = f;
metricRight = t;
}
{
glyphname = f_t.var;
layers = (
{
layerId = "B8B720EE-CA8B-4072-B286-8C23F1A5F625";
shapes = (
{
closed = 1;
nodes = (
(290,140,l),
(290,560,l),
(230,560,l),
(230,140,l)
);
},
{
closed = 1;
nodes = (
(374,-8,o),
(374,49,o),
(374,70,c),
(356,70,l),
(356,34,o),
(341,14,o),
(325,14,cs),
(301,14,o),
(290,58,o),
(290,120,cs),
(290,160,l),
(230,160,l),
(230,130,ls),
(230,87,o),
(235,-8,o),
(313,-8,cs)
);
},
{
closed = 1;
nodes = (
(370,484,l),
(370,500,l),
(180,500,l),
(180,484,l)
);
},
{
pos = (20,0);
ref = _part.fligavar1;
}
);
width = 370;
}
);
metricLeft = f_t;
metricRight = f_t;
}
{
glyphname = g.single;
kernLeft = o;
layers = (
{
anchors = (
{
name = bottom;
pos = (140,-240);
},
{
name = top;
pos = (134,500);
}
);
hints = (
{
name = _corner.serif;
origin = (0,1);
type = Corner;
}
);
layerId = "B8B720EE-CA8B-4072-B286-8C23F1A5F625";
shapes = (
{
closed = 1;
nodes = (
(240,-100,l),
(240,500,l),
(180,500,l),
(180,-100,l)
);
},
{
pos = (40,0);
ref = _part.mid;
},
{
pos = (40,-80);
ref = _part.lowercase2;
scale = (1,-1);
}
);
width = 280;
}
);
}
{
glyphname = jdotless.var;
layers = (
{
hints = (
{
name = _corner.serif;
options = 1;
origin = (0,2);
scale = (1,-1);
type = Corner;
}
);
layerId = "B8B720EE-CA8B-4072-B286-8C23F1A5F625";
shapes = (
{
closed = 1;
nodes = (
(110,-100,l),
(110,500,l),
(50,500,l),
(50,-100,l)
);
},
{
closed = 1;
nodes = (
(110,-248,o),
(110,-153,o),
(110,-120,cs),
(110,-80,l),
(50,-80,l),
(50,-130,ls),
(50,-179,o),
(50,-232,o),
(7,-232,cs),
(-36,-232,o),
(-36,-179,o),
(-36,-120,cs),
(-36,-100,l),
(-96,-100,l),
(-96,-120,ls),
(-96,-173,o),
(-96,-248,o),
(4,-248,cs)
);
}
);
width = 150;
}
);
metricLeft = j;
metricRight = jdotless;
}
{
glyphname = one.lf;
layers = (
{
hints = (
{
name = _corner.serif;
origin = (0,0);
scale = (2,-1);
type = Corner;
},
{
name = _corner.serif;
origin = (0,5);
scale = (2,1);
type = Corner;
}
);
layerId = "B8B720EE-CA8B-4072-B286-8C23F1A5F625";
shapes = (
{
closed = 1;
nodes = (
(136,0,l),
(136,710,l),
(10,682,l),
(10,665,l),
(74,679,l),
(74,0,l)
);
}
);
width = 206;
}
);
metricRight = l;
}
{
glyphname = r.var;
kernLeft = n;
kernRight = r;
layers = (
{
anchors = (
{
name = bottom;
pos = (70,0);
},
{
name = top;
pos = (109,500);
}
);
hints = (
{
name = _corner.serif;
options = 1;
origin = (1,4);
scale = (1,-1);
type = Corner;
},
{
name = _corner.serif;
origin = (1,5);
scale = (-1,-1);
type = Corner;
}
);
layerId = "B8B720EE-CA8B-4072-B286-8C23F1A5F625";
shapes = (
{
closed = 1;
nodes = (
(97,449,o),
(126,477,o),
(140,477,cs),
(156,477,o),
(162,460,o),
(162,432,c),
(216,432,l),
(216,444,ls),
(216,477,o),
(203,508,o),
(168,508,cs),
(128,508,o),
(95,468,o),
(80,437,c),
(80,414,l)
);
},
{
closed = 1;
nodes = (
(140,0,l),
(140,16,l),
(100,16,l),
(100,500,l),
(40,500,l),
(40,0,l)
);
}
);
width = 218;
}
);
metricLeft = r;
metricRight = r;
}
{
glyphname = seven.lf;
layers = (
{
hints = (
{
name = _corner.vertserif;
options = 1;
origin = (0,3);
scale = (-1,1);
type = Corner;
}
);
layerId = "B8B720EE-CA8B-4072-B286-8C23F1A5F625";
shapes = (
{
closed = 1;
nodes = (
(92,0,l),
(220,700,l),
(10,700,l),
(10,684,l),
(157,684,l),
(34,0,l)
);
}
);
width = 230;
}
);
}
{
glyphname = seven.sups;
layers = (
{
hints = (
{
name = _corner.vertserif;
options = 1;
origin = (0,0);
scale = (-0.8,1);
type = Corner;
}
);
layerId = "B8B720EE-CA8B-4072-B286-8C23F1A5F625";
shapes = (
{
closed = 1;
nodes = (
(20,724,l),
(127,724,l),
(44,480,l),
(90,480,l),
(178,740,l),
(20,740,l)
);
}
);
width = 198;
}
);
}
{
glyphname = six.sups;
layers = (
{
layerId = "B8B720EE-CA8B-4072-B286-8C23F1A5F625";
shapes = (
{
closed = 1;
nodes = (
(20,560,ls),
(20,537,o),
(20,470,o),
(98,470,cs),
(174,470,o),
(174,537,o),
(174,560,cs),
(174,593,o),
(168,641,o),
(123,641,cs),
(96,641,o),
(67,624,o),
(56,602,c),
(56,585,l),
(73,609,o),
(88,617,o),
(102,617,cs),
(126,617,o),
(128,594,o),
(128,560,cs),
(128,531,o),
(128,486,o),
(97,486,cs),
(66,486,o),
(66,531,o),
(66,560,cs),
(66,658,ls),
(66,687,o),
(66,732,o),
(95,732,cs),
(122,732,o),
(122,689,o),
(122,676,c),
(168,676,l),
(168,685,o),
(168,748,o),
(95,748,cs),
(20,748,o),
(20,681,o),
(20,658,cs)
);
}
);
width = 194;
}
);
}
{
glyphname = two.sups;
layers = (
{
hints = (
{
name = _corner.vertserif;
options = 1;
origin = (0,17);
scale = (-0.8,1);
type = Corner;
}
);
layerId = "B8B720EE-CA8B-4072-B286-8C23F1A5F625";
shapes = (
{
closed = 1;
nodes = (
(168,700,o),
(159,748,o),
(98,748,cs),
(20,748,o),
(20,667,o),
(20,658,c),
(67,658,l),
(67,673,o),
(69,732,o),
(98,732,cs),
(120,732,o),
(122,696,o),
(122,679,cs),
(122,585,o),
(20,608,o),
(20,480,c),
(168,480,l),
(168,496,l),
(66,496,l),
(66,576,o),
(168,592,o),
(168,675,cs)
);
}
);
width = 188;
}
);
}
{
glyphname = y.var;
kernLeft = n;
layers = (
{
anchors = (
{
name = bottom;
pos = (140,0);
},
{
name = top;
pos = (140,500);
}
);
hints = (
{
name = _corner.serif;
options = 1;
origin = (1,3);
scale = (1,-1);
type = Corner;
},
{
name = _corner.serif;
options = 1;
origin = (0,2);
scale = (1,-1);
type = Corner;
},
{
name = _corner.serif;
origin = (0,1);
type = Corner;
}
);
layerId = "B8B720EE-CA8B-4072-B286-8C23F1A5F625";
shapes = (
{
closed = 1;
nodes = (
(240,-100,l),
(240,500,l),
(180,500,l),
(180,-100,l)
);
},
{
closed = 1;
nodes = (
(40,140,l),
(100,140,l),
(100,500,l),
(40,500,l)
);
},
{
pos = (40,-80);
ref = _part.lowercase2;
scale = (1,-1);
},
{
angle = 180;
pos = (200,160);
ref = _part.lowercase1;
}
);
width = 280;
}
);
metricLeft = u;
metricRight = u;
}
